<?xml version="1.0" encoding="UTF-8" standalone="no"?>
<!-- Created with Inkscape (http://www.inkscape.org/) -->

<svg
   xmlns:dc="http://purl.org/dc/elements/1.1/"
   xmlns:cc="http://creativecommons.org/ns#"
   xmlns:rdf="http://www.w3.org/1999/02/22-rdf-syntax-ns#"
   xmlns:svg="http://www.w3.org/2000/svg"
   xmlns="http://www.w3.org/2000/svg"
   xmlns:xlink="http://www.w3.org/1999/xlink"
   xmlns:sodipodi="http://sodipodi.sourceforge.net/DTD/sodipodi-0.dtd"
   xmlns:inkscape="http://www.inkscape.org/namespaces/inkscape"
   version="1.0"
   width="96"
   height="96"
   id="svg2408"
   inkscape:version="0.48.0 r9654"
   sodipodi:docname="gwibber3.svg"
   inkscape:export-filename="/home/seba/Dropbox/Faenza/gwibber3.png"
   inkscape:export-xdpi="45"
   inkscape:export-ydpi="45">
  <metadata
     id="metadata181">
    <rdf:RDF>
      <cc:Work
         rdf:about="">
        <dc:format>image/svg+xml</dc:format>
        <dc:type
           rdf:resource="http://purl.org/dc/dcmitype/StillImage" />
        <dc:title></dc:title>
      </cc:Work>
    </rdf:RDF>
  </metadata>
  <sodipodi:namedview
     pagecolor="#ffffff"
     bordercolor="#666666"
     borderopacity="1"
     objecttolerance="10"
     gridtolerance="10"
     guidetolerance="10"
     inkscape:pageopacity="0"
     inkscape:pageshadow="2"
     inkscape:window-width="1280"
     inkscape:window-height="665"
     id="namedview179"
     showgrid="false"
     inkscape:zoom="1.0201488"
     inkscape:cx="60.539363"
     inkscape:cy="39.459765"
     inkscape:window-x="0"
     inkscape:window-y="24"
     inkscape:window-maximized="1"
     inkscape:current-layer="svg2408" />
  <defs
     id="defs2410">
    <linearGradient
       x1="45.447727"
       y1="92.539597"
       x2="45.447727"
       y2="7.0165396"
       id="ButtonShadow"
       gradientUnits="userSpaceOnUse"
       gradientTransform="scale(1.0058652,0.994169)">
      <stop
         id="stop3750"
         style="stop-color:#000000;stop-opacity:1"
         offset="0" />
      <stop
         id="stop3752"
         style="stop-color:#000000;stop-opacity:0.58823532"
         offset="1" />
    </linearGradient>
    <linearGradient
       id="linearGradient3737">
      <stop
         id="stop3739"
         style="stop-color:#ffffff;stop-opacity:1"
         offset="0" />
      <stop
         id="stop3741"
         style="stop-color:#ffffff;stop-opacity:0"
         offset="1" />
    </linearGradient>
    <filter
       color-interpolation-filters="sRGB"
       id="filter3174">
      <feGaussianBlur
         id="feGaussianBlur3176"
         stdDeviation="1.71" />
    </filter>
    <linearGradient
       x1="48"
       y1="20.220806"
       x2="48"
       y2="138.66119"
       id="linearGradient3613"
       xlink:href="#linearGradient3737"
       gradientUnits="userSpaceOnUse" />
    <clipPath
       id="clipPath3613">
      <rect
         width="84"
         height="84"
         rx="6"
         ry="6"
         x="6"
         y="6"
         id="rect3615"
         style="fill:#ffffff;fill-opacity:1;fill-rule:nonzero;stroke:none" />
    </clipPath>
    <linearGradient
       x1="10.31979"
       y1="21"
       x2="10.31979"
       y2="0.99929649"
       id="ButtonColor"
       gradientUnits="userSpaceOnUse">
      <stop
         id="stop3189"
         style="stop-color:#bebebe;stop-opacity:1;"
         offset="0" />
      <stop
         id="stop3191"
         style="stop-color:#e6e6e6;stop-opacity:1;"
         offset="1" />
    </linearGradient>
    <filter
       x="-0.19410552"
       y="-0.19410552"
       width="1.388211"
       height="1.388211"
       color-interpolation-filters="sRGB"
       id="filter4055">
      <feGaussianBlur
         id="feGaussianBlur4057"
         stdDeviation="5.3379019" />
    </filter>
    <linearGradient
       inkscape:collect="always"
       xlink:href="#ButtonShadow"
       id="linearGradient3280"
       gradientUnits="userSpaceOnUse"
       gradientTransform="translate(-1,1)"
       x1="48"
       y1="90.868095"
       x2="48"
       y2="5.9877172" />
    <linearGradient
       inkscape:collect="always"
       xlink:href="#ButtonShadow"
       id="linearGradient3282"
       gradientUnits="userSpaceOnUse"
       gradientTransform="translate(-1,1)"
       x1="48"
       y1="90.868095"
       x2="48"
       y2="5.9877172" />
    <linearGradient
       inkscape:collect="always"
       xlink:href="#ButtonShadow"
       id="linearGradient3284"
       gradientUnits="userSpaceOnUse"
       gradientTransform="translate(-1,1)"
       x1="48"
       y1="90.868095"
       x2="48"
       y2="5.9877172" />
    <linearGradient
       inkscape:collect="always"
       xlink:href="#ButtonShadow"
       id="linearGradient3286"
       gradientUnits="userSpaceOnUse"
       gradientTransform="translate(-1,1)"
       x1="48"
       y1="90.868095"
       x2="48"
       y2="5.9877172" />
    <linearGradient
       inkscape:collect="always"
       xlink:href="#ButtonShadow"
       id="linearGradient3288"
       gradientUnits="userSpaceOnUse"
       gradientTransform="translate(0,1)"
       x1="48"
       y1="90"
       x2="48"
       y2="5.9877172" />
    <linearGradient
       inkscape:collect="always"
       xlink:href="#linearGradient3737"
       id="linearGradient3296"
       gradientUnits="userSpaceOnUse"
       x1="48"
       y1="20.220806"
       x2="48"
       y2="138.66119" />
    <linearGradient
       id="linearGradient15553">
      <stop
         style="stop-color:#ffffff;stop-opacity:0.92810458;"
         offset="0"
         id="stop15555" />
      <stop
         id="stop15561"
         offset="0.5"
         style="stop-color:#bde4f4;stop-opacity:1;" />
      <stop
         style="stop-color:#8fd2ee;stop-opacity:0.62091506;"
         offset="1"
         id="stop15557" />
    </linearGradient>
    <linearGradient
       id="linearGradient4750-0">
      <stop
         id="stop4752-6"
         offset="0"
         style="stop-color:#ffffff;stop-opacity:1;" />
      <stop
         id="stop4758-3"
         offset="0.37931034"
         style="stop-color:#fefefe;stop-opacity:1.0000000;" />
      <stop
         id="stop4754-5"
         offset="1.0000000"
         style="stop-color:#1d1d1d;stop-opacity:1.0000000;" />
    </linearGradient>
    <linearGradient
       inkscape:collect="always"
       id="linearGradient15565">
      <stop
         style="stop-color:#1980c2;stop-opacity:1"
         offset="0"
         id="stop15567" />
      <stop
         style="stop-color:#00418b;stop-opacity:1"
         offset="1"
         id="stop15569" />
    </linearGradient>
    <radialGradient
       inkscape:collect="always"
       xlink:href="#linearGradient15565"
       id="radialGradient3360"
       gradientUnits="userSpaceOnUse"
       gradientTransform="matrix(1.8608564,-3.0096978e-7,2.3032201e-7,1.4240506,-214.11634,-17.72858)"
       cx="248.72481"
       cy="41.807873"
       fx="248.72481"
       fy="41.807873"
       r="54.624001" />
    <radialGradient
       inkscape:collect="always"
       xlink:href="#linearGradient4750-0"
       id="radialGradient3362"
       gradientUnits="userSpaceOnUse"
       gradientTransform="matrix(1.2251869,0,0,1.1312663,22.78373,29.677717)"
       cx="18.63378"
       cy="17.486208"
       fx="18.934305"
       fy="17.810213"
       r="40.692665" />
    <radialGradient
       inkscape:collect="always"
       xlink:href="#linearGradient15553"
       id="radialGradient3364"
       gradientUnits="userSpaceOnUse"
       gradientTransform="matrix(1.2315789,0,0,1.2631579,-57.599428,-7.6246621)"
       cx="248.72482"
       cy="28.973719"
       fx="248.72482"
       fy="28.973719"
       r="54.624001" />
    <radialGradient
       inkscape:collect="always"
       xlink:href="#linearGradient3737"
       id="radialGradient3369"
       gradientUnits="userSpaceOnUse"
       gradientTransform="matrix(-1.1428571,0,0,0.95238095,102.8593,3.4285712)"
       cx="48"
       cy="72"
       fx="48"
       fy="72"
       r="42" />
    <linearGradient
       inkscape:collect="always"
       xlink:href="#linearGradient3737"
       id="linearGradient3372"
       gradientUnits="userSpaceOnUse"
       x1="44"
       y1="6"
       x2="44"
       y2="64.215118"
       gradientTransform="matrix(-1,0,0,1,96.002155,0)" />
    <linearGradient
       inkscape:collect="always"
       xlink:href="#ButtonColor"
       id="linearGradient3375"
       gradientUnits="userSpaceOnUse"
       x1="48"
       y1="90"
       x2="48"
       y2="5.9877172"
       gradientTransform="matrix(-1,0,0,1,96.002155,0)" />
  </defs>
  <g
     id="layer2"
     style="display:none">
    <rect
       width="86"
       height="85"
       rx="6"
       ry="6"
       x="5"
       y="7"
       id="rect3745"
       style="opacity:0.9;fill:url(#ButtonShadow);fill-opacity:1;fill-rule:nonzero;stroke:none;filter:url(#filter3174)" />
  </g>
  <g
     id="layer3"
     transform="matrix(-1,0,0,1,96.002155,0)">
    <path
       inkscape:connector-curvature="0"
       d="m 12,4.03125 c -6.0701637,-0.1617408 -10.6911509,5.6895113 -9.96875,11.5 7.16e-5,0.04167 -7.01e-5,0.08333 0,0.125 0.030431,18.086218 -0.077787,36.153437 0.03125,54.25 a 0.93232674,0.93232674 0 0 0 0,0.0625 c 0.4297709,5.831518 6.2168912,9.674679 11.71875,9 0.0418,-0.0051 0.08323,0.0056 0.125,0 l 5.3125,0 c -0.679778,4.428501 -1.596836,8.895227 -2.0625,13.40625 a 0.93232674,0.93232674 0 0 0 0.03125,0.28125 c 0.279995,1.294203 1.371731,2.108795 2.46875,2.25 1.023884,0.131791 2.065552,-0.225148 2.84375,-1 l 0,0.03125 22.84375,-14.96875 c 13.185056,-0.02898 26.362788,0.07707 39.5625,-0.03125 a 0.93232674,0.93232674 0 0 0 0.0625,0 c 5.831518,-0.429771 9.674679,-6.216892 9,-11.71875 -0.0051,-0.0418 0.0056,-0.08323 0,-0.125 -0.03043,-18.00176 0.07779,-35.987855 -0.03125,-54 a 0.93232674,0.93232674 0 0 0 0,-0.0625 c -0.429771,-5.8315178 -6.216892,-9.6746792 -11.71875,-9 l -0.125,0 -70.0625,0 -0.03125,0 z"
       id="path4029"
       style="opacity:0.07999998;fill:url(#linearGradient3280);fill-opacity:1;fill-rule:nonzero;stroke:none" />
    <path
       inkscape:connector-curvature="0"
       d="M 12,4.96875 C 6.498217,4.8031106 2.2406967,10.230306 2.96875,15.520213 c 0.031153,18.132768 -0.06237,36.268711 0.046873,54.39949 0.3891125,5.279828 5.7301904,8.791471 10.757959,8.111547 2.17964,0 4.359279,0 6.538918,0 -0.693629,4.811167 -1.723208,9.637038 -2.21875,14.4375 0.399566,1.846889 2.79006,1.976363 3.910163,0.694482 C 29.700525,88.119238 37.397138,83.075244 45.09375,78.03125 58.368678,78.00033 71.646761,78.0933 84.919703,77.98438 90.199531,77.595267 93.711174,72.254189 93.03125,67.226421 93.000098,49.178106 93.093619,31.12662 92.984377,13.080297 92.595264,7.8004692 87.254186,4.2888256 82.226418,4.96875 c -23.408806,0 -46.817612,0 -70.226418,0 z"
       id="path4015"
       style="opacity:0.1;fill:url(#linearGradient3282);fill-opacity:1;fill-rule:nonzero;stroke:none" />
    <path
       inkscape:connector-curvature="0"
       d="M 12,6 C 7.5921478,6 4,9.5921478 4,14 l 0,55 c 0,4.407852 3.5921478,8 8,8 l 9.5,0 -2.40625,14.90625 a 0.98733463,0.98733463 0 0 0 1.5,0.96875 L 44.8125,77 84,77 c 4.407852,0 8,-3.592148 8,-8 L 92,14 C 92,9.5921478 88.407852,6 84,6 L 12,6 z"
       id="path4007"
       style="opacity:0.15;fill:url(#linearGradient3284);fill-opacity:1;fill-rule:nonzero;stroke:none" />
    <path
       inkscape:connector-curvature="0"
       d="M 12,7 C 8.122,7 5,10.122 5,14 l 0,55 c 0,3.878 3.122,7 7,7 L 22.65625,76 20.0625,92.0625 44.5625,76 84,76 c 3.878,0 7,-3.122 7,-7 L 91,14 C 91,10.122 87.878,7 84,7 L 12,7 z"
       id="rect3991"
       style="opacity:0.3;fill:url(#linearGradient3286);fill-opacity:1;fill-rule:nonzero;stroke:none" />
    <path
       inkscape:connector-curvature="0"
       d="M 12,7 C 8.676,7 6,9.676 6,13 l 0,56 c 0,3.324 2.676,6 6,6 l 12,0 -3,16 23,-16 40,0 c 3.324,0 6,-2.676 6,-6 L 90,13 C 90,9.676 87.324,7 84,7 L 12,7 z"
       id="path3984"
       style="opacity:0.45;fill:url(#linearGradient3288);fill-opacity:1;fill-rule:nonzero;stroke:none" />
  </g>
  <path
     inkscape:connector-curvature="0"
     style="fill:url(#linearGradient3375);fill-opacity:1;fill-rule:nonzero;stroke:none"
     id="rect2419"
     d="m 84.002155,6 c 3.324,0 6,2.676 6,6 l 0,56 c 0,3.324 -2.676,6 -6,6 l -12,0 3,16 -23,-16 -40,0 c -3.324,0 -6,-2.676 -6,-6 l 0,-56 c 0,-3.324 2.676,-6 6,-6 l 72,0 z" />
  <path
     inkscape:connector-curvature="0"
     style="opacity:0.4;fill:url(#linearGradient3372);fill-opacity:1;fill-rule:nonzero;stroke:none"
     id="path3953"
     d="m 84.002155,6 c 3.324,0 6,2.676 6,6 l 0,56 c 0,2.9085 -2.042227,5.317352 -4.78125,5.875 2.202136,-0.53769 3.8125,-2.49722 3.8125,-4.875 l 0,-56 c 0,-2.797389 -2.233862,-5.03125 -5.03125,-5.03125 l -72,0 c -2.797388,0 -5.03125,2.233861 -5.03125,5.03125 l 0,56 c 0,2.37778 1.610365,4.33731 3.8125,4.875 C 8.044382,73.317352 6.002155,70.9085 6.002155,68 l 0,-56 c 0,-3.324 2.676,-6 6,-6 l 72,0 z m -12,68.03125 3,15.96875 -22.96875,-15.96875 a 0.98129583,0.98129583 0 0 1 0.53125,0.15625 l 21.03125,14.625 -2.5625,-13.625 a 0.98129583,0.98129583 0 0 1 0.96875,-1.15625 z" />
  <path
     inkscape:connector-curvature="0"
     style="opacity:0.5;fill:url(#radialGradient3369);fill-opacity:1;fill-rule:nonzero;stroke:none"
     id="path3969"
     d="m 84.002155,6 c 3.324,0 6,2.676 6,6 l 0,56 c 0,3.324 -2.676,6 -6,6 l -12,0 3,16 -23,-16 -40,0 c -3.324,0 -6,-2.676 -6,-6 l 0,-56 c 0,-3.324 2.676,-6 6,-6 l 72,0 z m 0,2 -72,0 c -2.251468,0 -4,1.7485321 -4,4 l 0,56 c 0,2.251468 1.748532,4 4,4 l 40,0 a 1.9985725,1.9985725 0 0 1 1.15625,0.375 L 72.127155,85.5625 70.033405,74.375 A 1.9985725,1.9985725 0 0 1 72.002155,72 l 12,0 c 2.251468,0 4,-1.748532 4,-4 l 0,-56 c 0,-2.2514679 -1.748532,-4 -4,-4 z" />
  <g
     id="layer5"
     style="display:inline"
     transform="matrix(-1,0,0,1,96.002155,0)">
    <rect
       width="66"
       height="66"
       rx="12"
       ry="12"
       x="15"
       y="15"
       transform="matrix(1,0,0,0.74384496,0,3.8423256)"
       clip-path="url(#clipPath3613)"
       id="rect3171"
       style="opacity:0.1;fill:url(#linearGradient3296);fill-opacity:1;fill-rule:nonzero;stroke:#ffffff;stroke-width:0.57973403;stroke-linecap:round;stroke-linejoin:miter;stroke-miterlimit:4;stroke-opacity:1;stroke-dasharray:none;stroke-dashoffset:0;filter:url(#filter4055)" />
  </g>
  <path
     transform="matrix(0.48212324,0,0,0.48212324,-71.913855,18.018047)"
     d="m 303.34881,45.265087 a 54.624001,54.624001 0 1 1 -109.248,0 54.624001,54.624001 0 1 1 109.248,0 z"
     sodipodi:ry="54.624001"
     sodipodi:rx="54.624001"
     sodipodi:cy="45.265087"
     sodipodi:cx="248.72481"
     id="path15484-3-5-5"
     style="opacity:0.05;color:#000000;fill:#0a5ba1;fill-opacity:1;fill-rule:nonzero;stroke:none;stroke-width:0.47119007;marker:none;visibility:visible;display:inline;overflow:visible;enable-background:accumulate"
     sodipodi:type="arc" />
  <path
     transform="matrix(0.46381627,0,0,0.46381627,-67.360458,18.846713)"
     d="m 303.34881,45.265087 a 54.624001,54.624001 0 1 1 -109.248,0 54.624001,54.624001 0 1 1 109.248,0 z"
     sodipodi:ry="54.624001"
     sodipodi:rx="54.624001"
     sodipodi:cy="45.265087"
     sodipodi:cx="248.72481"
     id="path15484-3-5"
     style="opacity:0.15;color:#000000;fill:#0a5ba1;fill-opacity:1;fill-rule:nonzero;stroke:none;stroke-width:0.47119007;marker:none;visibility:visible;display:inline;overflow:visible;enable-background:accumulate"
     sodipodi:type="arc" />
  <path
     transform="matrix(0.4455093,0,0,0.4455093,-62.80706,19.67538)"
     d="m 303.34881,45.265087 a 54.624001,54.624001 0 1 1 -109.248,0 54.624001,54.624001 0 1 1 109.248,0 z"
     sodipodi:ry="54.624001"
     sodipodi:rx="54.624001"
     sodipodi:cy="45.265087"
     sodipodi:cx="248.72481"
     id="path15484-3"
     style="opacity:0.3;color:#000000;fill:#0a5ba1;fill-opacity:1;fill-rule:nonzero;stroke:none;stroke-width:0.47119007;marker:none;visibility:visible;display:inline;overflow:visible;enable-background:accumulate"
     sodipodi:type="arc" />
  <g
     id="g3351"
     transform="translate(-4.3299745,-17.796077)">
    <path
       transform="matrix(0.42445716,0,0,0.42445716,-53.240896,38.424384)"
       d="m 303.34881,45.265087 c 0,30.168003 -24.456,54.624001 -54.624,54.624001 -30.168,0 -54.624,-24.455998 -54.624,-54.624001 0,-30.168002 24.456,-54.6240004 54.624,-54.6240004 30.168,0 54.624,24.4559984 54.624,54.6240004 z"
       sodipodi:ry="54.624001"
       sodipodi:rx="54.624001"
       sodipodi:cy="45.265087"
       sodipodi:cx="248.72481"
       id="path15484"
       style="color:#000000;fill:url(#radialGradient3360);fill-opacity:1;fill-rule:nonzero;stroke:#115c8f;stroke-width:1.17797518;stroke-miterlimit:4;stroke-opacity:1;stroke-dasharray:none;marker:none;visibility:visible;display:inline;overflow:visible;enable-background:accumulate"
       sodipodi:type="arc" />
    <path
       id="path15484-8"
       d="m 52.32738,34.454915 c -12.805025,0 -23.178208,10.373182 -23.178208,23.178208 0,12.805024 10.373183,23.191178 23.178208,23.191178 12.805027,0 23.191178,-10.386154 23.191178,-23.191178 0,-12.805026 -10.386151,-23.178208 -23.191178,-23.178208 z m 0,0.54476 c 11.265181,0 20.402528,7.727984 20.402528,17.250708 0,9.522724 -9.137347,17.237738 -20.402528,17.237738 -11.26518,0 -20.38956,-7.715014 -20.38956,-17.237738 0,-9.522724 9.12438,-17.250708 20.38956,-17.250708 z"
       style="opacity:0.1;color:#000000;fill:#ffffff;fill-opacity:1;fill-rule:nonzero;stroke:none;stroke-width:0.97784811;marker:none;visibility:visible;display:inline;overflow:visible;enable-background:accumulate"
       inkscape:connector-curvature="0" />
    <path
       id="path3224"
       d="m 39.073517,38.960401 -0.422252,1.06674 c 0,0 -0.726477,0.132516 -0.911172,0.17779 -2.358743,2.157473 -7.115555,6.830951 -8.222785,15.623289 0.04385,0.203853 0.800055,1.377871 0.800055,1.377871 l 1.800122,1.066739 1.800124,0.466699 0.777831,0.977844 1.200082,0.866727 0.688935,-0.0889 0.511147,0.222238 0,0.155566 -0.688936,1.84457 -0.511146,0.755609 0.17779,0.400026 -0.444476,1.444542 1.555663,2.800193 1.555662,1.355647 0.666711,0.955622 -0.06668,2.022359 0.511147,1.155636 -0.511147,2.222372 c 0,0 -0.04359,-0.02213 0.02223,0.200015 0.06641,0.222273 2.740557,1.703861 2.911309,1.577884 0.170161,-0.128313 0.311131,-0.222236 0.311131,-0.222236 l -0.155568,-0.488918 0.688937,-0.666712 0.244461,-0.688935 1.133411,-0.377804 0.844502,-2.133479 -0.244462,-0.577816 0.600042,-0.866727 1.288977,-0.28891 0.688936,-1.533437 -0.17779,-1.933466 1.022292,-1.444542 0.17779,-1.466767 c -1.410205,-0.694133 -2.800586,-1.396594 -4.20028,-2.111253 l -0.688936,-1.355648 -1.288976,-0.28891 -0.688937,-1.822346 -1.733452,0.17779 -1.444543,-1.044515 -1.555661,1.333424 0,0.222237 c -0.467944,-0.134061 -1.050108,-0.145738 -1.466768,-0.400027 l -0.333356,-0.977844 0,-1.06674 -1.022292,0.111118 c 0.08603,-0.675836 0.157846,-1.346644 0.244462,-2.022361 l -0.600041,0 -0.600041,0.755609 -0.60004,0.288908 -0.866727,-0.466699 -0.08889,-1.06674 0.177789,-1.155634 1.288977,-0.977844 1.044515,0 0.155567,-0.577817 1.288977,0.288908 0.95562,1.155635 0.177791,-1.911241 1.622333,-1.355649 0.600041,-1.444544 1.200081,-0.488922 0.688936,-0.977844 1.555663,-0.288908 0.755606,-1.155635 -2.311269,0 1.466766,-0.666712 1.022293,0 1.466766,-0.488923 0.17779,-0.577817 -0.533368,-0.488922 -0.600042,-0.17779 0.17779,-0.577817 -0.422251,-0.866726 -1.044515,0.377804 0.17779,-0.777832 -1.200083,-0.666712 -0.95562,1.644558 0.08889,0.577816 -0.933396,0.377804 -0.600042,1.266753 -0.266685,-1.177858 -1.622332,-0.666712 -0.266685,-0.866727 2.155702,-1.266753 0.933398,-0.866725 0.08889,-1.044515 -0.511146,-0.28891 -0.688936,-0.111118 z m 24.068309,0 -1.644556,0.400028 -1.022292,0.666712 0,0.577816 -1.622333,1.06674 0.333355,1.533437 0.955622,-0.666712 0.600041,0.666712 0.666712,0.400028 0.444474,-1.155634 -0.266685,-0.688937 0.266685,-0.488922 0.933398,-0.866725 0.444474,0 -0.444474,0.977844 0,0.866727 c 0.394679,-0.106618 0.796186,-0.150161 1.200082,-0.200015 l -1.111188,0.777832 -0.08889,0.488922 -1.288977,1.044517 -1.288978,-0.28891 0,-0.755607 -0.60004,0.377804 0.266684,0.666713 -0.95562,0 -0.511146,0.888948 -0.644488,0.71116 -1.155635,0.24446 0.688936,0.666713 0.17779,0.688936 -0.866726,0 -1.111187,0.577817 0,1.733452 0.511146,0 0.466699,0.533369 1.088962,-0.533369 0.422253,-1.066739 0.777829,-0.488923 0.155567,-0.377803 1.288976,-0.288909 0.688937,0.777831 0.777831,0.377804 -0.422251,0.866726 0.688936,-0.17779 0.333356,-0.866726 -0.866726,-0.977845 0.355579,0 0.866727,0.666712 0.155566,0.977845 0.777831,0.866726 0.17779,-1.24453 0.422251,-0.200014 c 0.42469,0.437619 0.753494,0.95203 1.111187,1.444544 l 1.288977,0.08889 0.77783,0.488922 -0.333356,0.488923 -0.777831,0.666713 -1.111186,0 -1.466767,-0.488923 -0.777832,0.111118 -0.555593,0.622266 -1.577885,-1.60011 -1.133411,-0.288909 -1.622332,0.200015 -1.466767,0.377803 c -0.819375,0.922033 -1.624631,1.842622 -2.400165,2.800191 l -0.95562,2.222374 0.444475,0.488922 -0.777831,1.155634 0.866726,2.022361 c 0.730393,0.820102 1.448592,1.646143 2.177926,2.466834 l 1.088963,-0.911172 0.466699,0.53337 1.155634,-0.733384 0.377804,0.444474 1.177858,0 0.644488,0.733384 -0.400028,1.333425 0.822278,0.911174 -0.04444,1.600109 0.60004,1.155634 -0.42225,0.955621 c -0.04277,0.710084 -0.08889,1.423272 -0.08889,2.133478 0.352017,0.96215 0.689881,1.920018 1.022292,2.889087 l 0.266684,1.555662 0,0.755606 0.600042,0 0.933397,-0.577816 1.13341,0 1.66678,-1.866795 -0.222236,-0.622264 1.133411,-0.977846 -0.822278,-0.911172 0.977844,-0.822278 0.95562,-0.577818 0.422252,-0.488922 -0.266686,-1.066739 0,-2.689073 0.777832,-1.644557 0.955621,-1.066739 1.022291,-2.511283 0,-0.666712 c -0.504113,0.06302 -0.995944,0.119695 -1.48899,0.155565 l 1.022291,-1.02229 1.42232,-0.977846 0.755607,-0.866725 0,-0.955622 c -0.171953,-0.321844 -0.338043,-0.65599 -0.511162,-0.97784 l -0.688935,0.777832 -0.511146,-0.577818 -0.777831,-0.577816 0,-1.244531 0.911174,1.000069 0.977844,-0.133343 c 0.449986,0.405482 0.894298,0.782865 1.288977,1.244529 l 0.644488,-0.711159 c 0,-0.76744 -0.873568,-4.550021 -2.755743,-7.756085 -1.88217,-3.205005 -5.178132,-6.133752 -5.178132,-6.133752 l -0.266684,0.422251 -0.844503,0.955621 -1.133411,-1.155634 1.133411,0 0.511147,-0.577819 -2.066809,-0.377802 -1.111187,-0.400028 z m 3.955826,14.089851 0.977844,1.111188 1.155635,2.466834 0.688936,0.777831 -0.333356,0.866725 0.644488,0.733383 c -0.301893,0.02035 -0.600752,0.04444 -0.911172,0.04444 -0.547004,-1.140899 -0.961332,-2.295559 -1.377872,-3.489127 l -0.733384,-0.822275 -0.377803,-1.400096 0.266684,-0.288908 z"
       style="color:#000000;fill:url(#radialGradient3362);fill-opacity:1;fill-rule:nonzero;stroke:none;stroke-width:1.01794541;marker:none;visibility:visible;display:inline;overflow:visible"
       inkscape:connector-curvature="0" />
    <path
       transform="matrix(0.24834648,0,0,0.14457056,-9.4377996,36.815877)"
       d="m 303.34881,45.265087 c 0,30.168003 -24.456,54.624001 -54.624,54.624001 -30.168,0 -54.624,-24.455998 -54.624,-54.624001 0,-30.168002 24.456,-54.6240004 54.624,-54.6240004 30.168,0 54.624,24.4559984 54.624,54.6240004 z"
       sodipodi:ry="54.624001"
       sodipodi:rx="54.624001"
       sodipodi:cy="45.265087"
       sodipodi:cx="248.72481"
       id="path15484-4"
       style="opacity:0.3;color:#000000;fill:url(#radialGradient3364);fill-opacity:1;fill-rule:nonzero;stroke:none;stroke-width:0.97784811000000005;marker:none;visibility:visible;display:inline;overflow:visible;enable-background:accumulate"
       sodipodi:type="arc" />
  </g>
</svg>
