<?xml version="1.0" encoding="UTF-8" standalone="no"?>
<!-- Created with Inkscape (http://www.inkscape.org/) -->

<svg
   xmlns:dc="http://purl.org/dc/elements/1.1/"
   xmlns:cc="http://creativecommons.org/ns#"
   xmlns:rdf="http://www.w3.org/1999/02/22-rdf-syntax-ns#"
   xmlns:svg="http://www.w3.org/2000/svg"
   xmlns="http://www.w3.org/2000/svg"
   xmlns:xlink="http://www.w3.org/1999/xlink"
   xmlns:sodipodi="http://sodipodi.sourceforge.net/DTD/sodipodi-0.dtd"
   xmlns:inkscape="http://www.inkscape.org/namespaces/inkscape"
   version="1.0"
   width="96"
   height="96"
   id="svg2408"
   style="enable-background:new"
   inkscape:version="0.47 r22583"
   sodipodi:docname="acroread.svg">
  <metadata
     id="metadata3572">
    <rdf:RDF>
      <cc:Work
         rdf:about="">
        <dc:format>image/svg+xml</dc:format>
        <dc:type
           rdf:resource="http://purl.org/dc/dcmitype/StillImage" />
        <dc:title></dc:title>
      </cc:Work>
    </rdf:RDF>
  </metadata>
  <sodipodi:namedview
     pagecolor="#ffffff"
     bordercolor="#666666"
     borderopacity="1"
     objecttolerance="10"
     gridtolerance="10"
     guidetolerance="10"
     inkscape:pageopacity="0"
     inkscape:pageshadow="2"
     inkscape:window-width="640"
     inkscape:window-height="480"
     id="namedview3570"
     showgrid="false"
     inkscape:zoom="2.4583333"
     inkscape:cx="-2.6440678"
     inkscape:cy="48"
     inkscape:current-layer="svg2408" />
  <defs
     id="defs2410">
    <linearGradient
       x1="45.447727"
       y1="92.539597"
       x2="45.447727"
       y2="7.0165396"
       id="ButtonShadow"
       gradientUnits="userSpaceOnUse"
       gradientTransform="scale(1.0058652,0.994169)">
      <stop
         id="stop3750"
         style="stop-color:#000000;stop-opacity:1"
         offset="0" />
      <stop
         id="stop3752"
         style="stop-color:#000000;stop-opacity:0.58823532"
         offset="1" />
    </linearGradient>
    <filter
       color-interpolation-filters="sRGB"
       id="filter3174">
      <feGaussianBlur
         id="feGaussianBlur3176"
         stdDeviation="1.71" />
    </filter>
    <linearGradient
       x1="45.447727"
       y1="92.539597"
       x2="45.447727"
       y2="7.0165396"
       id="linearGradient2964"
       xlink:href="#ButtonShadow"
       gradientUnits="userSpaceOnUse"
       gradientTransform="scale(1.0058652,0.994169)" />
    <linearGradient
       id="linearGradient3737-11">
      <stop
         id="stop3739-5"
         style="stop-color:#ffffff;stop-opacity:1"
         offset="0" />
      <stop
         id="stop3741-9"
         style="stop-color:#ffffff;stop-opacity:0"
         offset="1" />
    </linearGradient>
    <filter
       x="-0.192"
       y="-0.192"
       width="1.3839999"
       height="1.3839999"
       color-interpolation-filters="sRGB"
       id="filter3794-7">
      <feGaussianBlur
         id="feGaussianBlur3796-7"
         stdDeviation="5.28" />
    </filter>
    <linearGradient
       x1="48"
       y1="20.220806"
       x2="48"
       y2="138.66119"
       id="linearGradient2862"
       xlink:href="#linearGradient3737-11"
       gradientUnits="userSpaceOnUse" />
    <linearGradient
       x1="45.447727"
       y1="92.539597"
       x2="45.447727"
       y2="7.0165396"
       id="ButtonShadow-0"
       gradientUnits="userSpaceOnUse"
       gradientTransform="matrix(1.0058652,0,0,0.994169,100,0)">
      <stop
         id="stop3750-8"
         style="stop-color:#000000;stop-opacity:1"
         offset="0" />
      <stop
         id="stop3752-5"
         style="stop-color:#000000;stop-opacity:0.58823532"
         offset="1" />
    </linearGradient>
    <linearGradient
       x1="32.251034"
       y1="6.1317081"
       x2="32.251034"
       y2="90.238609"
       id="linearGradient3780"
       xlink:href="#ButtonShadow-0"
       gradientUnits="userSpaceOnUse"
       gradientTransform="matrix(1.0238095,0,0,1.0119048,-1.1428571,-98.071429)" />
    <linearGradient
       x1="32.251034"
       y1="6.1317081"
       x2="32.251034"
       y2="90.238609"
       id="linearGradient3772"
       xlink:href="#ButtonShadow-0"
       gradientUnits="userSpaceOnUse"
       gradientTransform="matrix(1.0238095,0,0,1.0119048,-1.1428571,-98.071429)" />
    <linearGradient
       x1="32.251034"
       y1="6.1317081"
       x2="32.251034"
       y2="90.238609"
       id="linearGradient3725"
       xlink:href="#ButtonShadow-0"
       gradientUnits="userSpaceOnUse"
       gradientTransform="matrix(1.0238095,0,0,1.0119048,-1.1428571,-98.071429)" />
    <linearGradient
       x1="32.251034"
       y1="6.1317081"
       x2="32.251034"
       y2="90.238609"
       id="linearGradient3721"
       xlink:href="#ButtonShadow-0"
       gradientUnits="userSpaceOnUse"
       gradientTransform="translate(0,-97)" />
    <linearGradient
       x1="32.251034"
       y1="6.1317081"
       x2="32.251034"
       y2="90.238609"
       id="linearGradient3059"
       xlink:href="#ButtonShadow-0"
       gradientUnits="userSpaceOnUse"
       gradientTransform="matrix(1.0238095,0,0,1.0119048,-1.1428571,-98.071429)" />
    <radialGradient
       inkscape:collect="always"
       xlink:href="#linearGradient7985"
       id="radialGradient5296"
       cx="48.029797"
       cy="85.961372"
       fx="48.029797"
       fy="85.961372"
       r="42"
       gradientUnits="userSpaceOnUse"
       gradientTransform="matrix(-2.0815357,-3.9477443e-8,0,-1.43524,147.97574,171.3752)" />
    <linearGradient
       id="linearGradient7985">
      <stop
         id="stop7987"
         style="stop-color:#e1e1e1;stop-opacity:1;"
         offset="0" />
      <stop
         id="stop7997"
         style="stop-color:#e1e1e1;stop-opacity:1;"
         offset="0.1" />
      <stop
         id="stop7993"
         style="stop-color:#c3c3c3;stop-opacity:1;"
         offset="0.30000001" />
      <stop
         id="stop7995"
         style="stop-color:#a5a5a5;stop-opacity:1;"
         offset="0.80000001" />
      <stop
         id="stop7989"
         style="stop-color:#c3c3c3;stop-opacity:1;"
         offset="1" />
    </linearGradient>
    <linearGradient
       x1="36.357143"
       y1="6"
       x2="36.357143"
       y2="63.893143"
       id="linearGradient3188-9"
       xlink:href="#linearGradient3737-9"
       gradientUnits="userSpaceOnUse" />
    <linearGradient
       id="linearGradient3737-9">
      <stop
         id="stop3739-19"
         style="stop-color:#ffffff;stop-opacity:1"
         offset="0" />
      <stop
         id="stop3741-4"
         style="stop-color:#ffffff;stop-opacity:0"
         offset="1" />
    </linearGradient>
    <radialGradient
       r="42"
       fy="90.171875"
       fx="48"
       cy="90.171875"
       cx="48"
       gradientTransform="matrix(1.1573129,0,0,0.99590774,-7.5510206,0.19713193)"
       gradientUnits="userSpaceOnUse"
       id="radialGradient5207"
       xlink:href="#linearGradient3737-9"
       inkscape:collect="always" />
    <linearGradient
       x1="48"
       y1="20.220806"
       x2="48"
       y2="138.66119"
       id="linearGradient2908"
       xlink:href="#linearGradient3737-6"
       gradientUnits="userSpaceOnUse" />
    <linearGradient
       id="linearGradient3737-6">
      <stop
         id="stop3739-1-5"
         style="stop-color:#ffffff;stop-opacity:1"
         offset="0" />
      <stop
         id="stop3741-5-2"
         style="stop-color:#ffffff;stop-opacity:0"
         offset="1" />
    </linearGradient>
    <clipPath
       id="clipPath3613-7">
      <rect
         width="84"
         height="84"
         rx="6"
         ry="6"
         x="6"
         y="6"
         id="rect3615-9"
         style="fill:#ffffff;fill-opacity:1;fill-rule:nonzero;stroke:none" />
    </clipPath>
    <filter
       x="-0.192"
       y="-0.192"
       width="1.3839999"
       height="1.3839999"
       color-interpolation-filters="sRGB"
       id="filter3794-9">
      <feGaussianBlur
         id="feGaussianBlur3796-4"
         stdDeviation="5.28" />
    </filter>
    <linearGradient
       inkscape:collect="always"
       xlink:href="#linearGradient3725-7"
       id="linearGradient3812"
       gradientUnits="userSpaceOnUse"
       x1="-191.88623"
       y1="-94.339043"
       x2="-229.44528"
       y2="63.429726" />
    <linearGradient
       inkscape:collect="always"
       id="linearGradient3725-7">
      <stop
         style="stop-color:#ffffff;stop-opacity:1;"
         offset="0"
         id="stop3727" />
      <stop
         style="stop-color:#ffffff;stop-opacity:0;"
         offset="1"
         id="stop3729" />
    </linearGradient>
    <linearGradient
       inkscape:collect="always"
       xlink:href="#linearGradient4499"
       id="linearGradient4497"
       gradientUnits="userSpaceOnUse"
       gradientTransform="matrix(0.26079374,0,0,0.26079374,84.311772,38.819777)"
       x1="-170.21436"
       y1="-86.094803"
       x2="-142.01384"
       y2="141.63657" />
    <linearGradient
       id="linearGradient4499">
      <stop
         style="stop-color:#ffffff;stop-opacity:1;"
         offset="0"
         id="stop4501" />
      <stop
         id="stop4503"
         offset="0.7822426"
         style="stop-color:#ffffff;stop-opacity:1" />
      <stop
         id="stop4505"
         offset="0.86521298"
         style="stop-color:#ffffff;stop-opacity:0" />
      <stop
         style="stop-color:#ffffff;stop-opacity:0;"
         offset="1"
         id="stop4507" />
    </linearGradient>
    <linearGradient
       inkscape:collect="always"
       xlink:href="#linearGradient3780-5"
       id="linearGradient3816"
       gradientUnits="userSpaceOnUse"
       x1="-154.12367"
       y1="83.423248"
       x2="-161.24596"
       y2="97.055939" />
    <linearGradient
       inkscape:collect="always"
       id="linearGradient3780-5">
      <stop
         style="stop-color:#ffffff;stop-opacity:1;"
         offset="0"
         id="stop3782" />
      <stop
         style="stop-color:#ffffff;stop-opacity:0;"
         offset="1"
         id="stop3784" />
    </linearGradient>
    <linearGradient
       inkscape:collect="always"
       id="linearGradient4427">
      <stop
         style="stop-color:#ffffff;stop-opacity:1;"
         offset="0"
         id="stop4429" />
      <stop
         style="stop-color:#ffffff;stop-opacity:0;"
         offset="1"
         id="stop4431" />
    </linearGradient>
    <radialGradient
       r="14.154764"
       fy="66.269669"
       fx="49.879951"
       cy="66.269669"
       cx="49.879951"
       gradientTransform="matrix(1,0,0,0.81101151,0,13.183308)"
       gradientUnits="userSpaceOnUse"
       id="radialGradient3647"
       xlink:href="#linearGradient4427"
       inkscape:collect="always" />
  </defs>
  <g
     id="layer2"
     style="display:none">
    <rect
       width="86"
       height="85"
       rx="6"
       ry="6"
       x="5"
       y="7"
       id="rect3745"
       style="opacity:0.9;fill:url(#linearGradient2964);fill-opacity:1;fill-rule:nonzero;stroke:none;filter:url(#filter3174)" />
  </g>
  <g
     id="layer5"
     style="display:inline">
    <path
       d="m 12,-95.03125 c -5.5110903,0 -10.03125,4.52016 -10.03125,10.03125 l 0,71 c 0,5.5110902 4.5201598,10.03125 10.03125,10.03125 l 72,0 c 5.51109,0 10.03125,-4.5201597 10.03125,-10.03125 l 0,-71 c 0,-5.51109 -4.52016,-10.03125 -10.03125,-10.03125 l -72,0 z"
       transform="scale(1,-1)"
       id="path3786"
       style="opacity:0.07999998;fill:url(#linearGradient3059);fill-opacity:1;fill-rule:nonzero;stroke:none;display:inline" />
    <path
       d="m 12,-94.03125 c -4.971633,0 -9.03125,4.059617 -9.03125,9.03125 l 0,71 c 0,4.9716329 4.0596171,9.03125 9.03125,9.03125 l 72,0 c 4.971633,0 9.03125,-4.059617 9.03125,-9.03125 l 0,-71 c 0,-4.971633 -4.059617,-9.03125 -9.03125,-9.03125 l -72,0 z"
       transform="scale(1,-1)"
       id="path3778"
       style="opacity:0.1;fill:url(#linearGradient3780);fill-opacity:1;fill-rule:nonzero;stroke:none;display:inline" />
    <path
       d="m 12,-93 c -4.4091333,0 -8,3.590867 -8,8 l 0,71 c 0,4.4091333 3.5908667,8 8,8 l 72,0 c 4.409133,0 8,-3.5908667 8,-8 l 0,-71 c 0,-4.409133 -3.590867,-8 -8,-8 l -72,0 z"
       transform="scale(1,-1)"
       id="path3770"
       style="opacity:0.2;fill:url(#linearGradient3772);fill-opacity:1;fill-rule:nonzero;stroke:none;display:inline" />
    <rect
       width="86"
       height="85"
       rx="7"
       ry="7"
       x="5"
       y="-92"
       transform="scale(1,-1)"
       id="rect3723"
       style="opacity:0.3;fill:url(#linearGradient3725);fill-opacity:1;fill-rule:nonzero;stroke:none;display:inline" />
    <rect
       width="84"
       height="84"
       rx="6"
       ry="6"
       x="6"
       y="-91"
       transform="scale(1,-1)"
       id="rect3716"
       style="opacity:0.45;fill:url(#linearGradient3721);fill-opacity:1;fill-rule:nonzero;stroke:none;display:inline" />
  </g>
  <g
     id="layer4"
     style="display:inline" />
  <g
     transform="translate(72.25,-63.25)"
     id="g2897">
    <g
       transform="translate(-72.25,63.25)"
       id="layer1-0">
      <rect
         style="fill:url(#radialGradient5296);fill-opacity:1;fill-rule:nonzero;stroke:none"
         id="rect2419-6"
         y="6"
         x="6"
         ry="6"
         rx="6"
         height="84"
         width="84" />
      <path
         style="opacity:0.4;fill:url(#linearGradient3188-9);fill-opacity:1;fill-rule:nonzero;stroke:none"
         id="rect3728-5"
         d="M 12,6 C 8.676,6 6,8.676 6,12 l 0,2 0,68 0,2 c 0,0.334721 0.04135,0.6507 0.09375,0.96875 0.0487,0.295596 0.09704,0.596915 0.1875,0.875 0.00988,0.03038 0.020892,0.0636 0.03125,0.09375 0.098865,0.287771 0.2348802,0.547452 0.375,0.8125 0.1445918,0.273507 0.3156161,0.535615 0.5,0.78125 0.1843839,0.245635 0.3737765,0.473472 0.59375,0.6875 0.439947,0.428056 0.94291,0.814526 1.5,1.09375 0.278545,0.139612 0.5734731,0.246947 0.875,0.34375 -0.2562018,-0.100222 -0.4867109,-0.236272 -0.71875,-0.375 -0.00741,-0.0044 -0.023866,0.0045 -0.03125,0 -0.031933,-0.0193 -0.062293,-0.04251 -0.09375,-0.0625 -0.120395,-0.0767 -0.2310226,-0.163513 -0.34375,-0.25 -0.1061728,-0.0808 -0.2132809,-0.161112 -0.3125,-0.25 C 8.4783201,88.557317 8.3087904,88.373362 8.15625,88.1875 8.0486711,88.057245 7.9378561,87.922215 7.84375,87.78125 7.818661,87.74287 7.805304,87.69538 7.78125,87.65625 7.716487,87.553218 7.6510225,87.451733 7.59375,87.34375 7.4927417,87.149044 7.3880752,86.928049 7.3125,86.71875 7.30454,86.69694 7.288911,86.6782 7.28125,86.65625 7.2494249,86.5643 7.2454455,86.469419 7.21875,86.375 7.1884177,86.268382 7.1483606,86.171969 7.125,86.0625 7.0521214,85.720988 7,85.364295 7,85 L 7,83 7,15 7,13 C 7,10.218152 9.2181517,8 12,8 l 2,0 68,0 2,0 c 2.781848,0 5,2.218152 5,5 l 0,2 0,68 0,2 c 0,0.364295 -0.05212,0.720988 -0.125,1.0625 -0.04415,0.206893 -0.08838,0.397658 -0.15625,0.59375 -0.0077,0.02195 -0.0233,0.04069 -0.03125,0.0625 -0.06274,0.173739 -0.138383,0.367449 -0.21875,0.53125 -0.04158,0.0828 -0.07904,0.169954 -0.125,0.25 -0.0546,0.09721 -0.126774,0.18835 -0.1875,0.28125 -0.09411,0.140965 -0.204921,0.275995 -0.3125,0.40625 -0.143174,0.17445 -0.303141,0.346998 -0.46875,0.5 -0.01117,0.0102 -0.01998,0.02115 -0.03125,0.03125 -0.138386,0.125556 -0.285091,0.234436 -0.4375,0.34375 -0.102571,0.07315 -0.204318,0.153364 -0.3125,0.21875 -0.0074,0.0045 -0.02384,-0.0044 -0.03125,0 -0.232039,0.138728 -0.462548,0.274778 -0.71875,0.375 0.301527,-0.0968 0.596455,-0.204138 0.875,-0.34375 0.55709,-0.279224 1.060053,-0.665694 1.5,-1.09375 0.219973,-0.214028 0.409366,-0.441865 0.59375,-0.6875 0.184384,-0.245635 0.355408,-0.507743 0.5,-0.78125 0.14012,-0.265048 0.276135,-0.524729 0.375,-0.8125 0.01041,-0.03078 0.02133,-0.06274 0.03125,-0.09375 0.09046,-0.278085 0.1388,-0.579404 0.1875,-0.875 C 89.95865,84.6507 90,84.334721 90,84 l 0,-2 0,-68 0,-2 C 90,8.676 87.324,6 84,6 L 12,6 z" />
      <path
         style="opacity:0.2;fill:url(#radialGradient5207);fill-opacity:1;fill-rule:nonzero;stroke:none"
         id="path3615-9"
         d="M 12,90 C 8.676,90 6,87.324 6,84 L 6,82 6,14 6,12 c 0,-0.334721 0.04135,-0.6507 0.09375,-0.96875 0.0487,-0.295596 0.09704,-0.596915 0.1875,-0.875 C 6.29113,10.12587 6.302142,10.09265 6.3125,10.0625 6.411365,9.774729 6.5473802,9.515048 6.6875,9.25 6.8320918,8.976493 7.0031161,8.714385 7.1875,8.46875 7.3718839,8.223115 7.5612765,7.995278 7.78125,7.78125 8.221197,7.353194 8.72416,6.966724 9.28125,6.6875 9.559795,6.547888 9.8547231,6.440553 10.15625,6.34375 9.9000482,6.443972 9.6695391,6.580022 9.4375,6.71875 c -0.00741,0.0044 -0.023866,-0.0045 -0.03125,0 -0.031933,0.0193 -0.062293,0.04251 -0.09375,0.0625 -0.120395,0.0767 -0.2310226,0.163513 -0.34375,0.25 -0.1061728,0.0808 -0.2132809,0.161112 -0.3125,0.25 C 8.4783201,7.442683 8.3087904,7.626638 8.15625,7.8125 8.0486711,7.942755 7.9378561,8.077785 7.84375,8.21875 7.818661,8.25713 7.805304,8.30462 7.78125,8.34375 7.716487,8.446782 7.6510225,8.548267 7.59375,8.65625 7.4927417,8.850956 7.3880752,9.071951 7.3125,9.28125 7.30454,9.30306 7.288911,9.3218 7.28125,9.34375 7.2494249,9.4357 7.2454455,9.530581 7.21875,9.625 7.1884177,9.731618 7.1483606,9.828031 7.125,9.9375 7.0521214,10.279012 7,10.635705 7,11 l 0,2 0,68 0,2 c 0,2.781848 2.2181517,5 5,5 l 2,0 68,0 2,0 c 2.781848,0 5,-2.218152 5,-5 l 0,-2 0,-68 0,-2 C 89,10.635705 88.94788,10.279012 88.875,9.9375 88.83085,9.730607 88.78662,9.539842 88.71875,9.34375 88.71105,9.3218 88.69545,9.30306 88.6875,9.28125 88.62476,9.107511 88.549117,8.913801 88.46875,8.75 88.42717,8.6672 88.38971,8.580046 88.34375,8.5 88.28915,8.40279 88.216976,8.31165 88.15625,8.21875 88.06214,8.077785 87.951329,7.942755 87.84375,7.8125 87.700576,7.63805 87.540609,7.465502 87.375,7.3125 87.36383,7.3023 87.35502,7.29135 87.34375,7.28125 87.205364,7.155694 87.058659,7.046814 86.90625,6.9375 86.803679,6.86435 86.701932,6.784136 86.59375,6.71875 c -0.0074,-0.0045 -0.02384,0.0044 -0.03125,0 -0.232039,-0.138728 -0.462548,-0.274778 -0.71875,-0.375 0.301527,0.0968 0.596455,0.204138 0.875,0.34375 0.55709,0.279224 1.060053,0.665694 1.5,1.09375 0.219973,0.214028 0.409366,0.441865 0.59375,0.6875 0.184384,0.245635 0.355408,0.507743 0.5,0.78125 0.14012,0.265048 0.276135,0.524729 0.375,0.8125 0.01041,0.03078 0.02133,0.06274 0.03125,0.09375 0.09046,0.278085 0.1388,0.579404 0.1875,0.875 C 89.95865,11.3493 90,11.665279 90,12 l 0,2 0,68 0,2 c 0,3.324 -2.676,6 -6,6 l -72,0 z" />
    </g>
    <g
       transform="translate(-72.25,63.25)"
       id="layer5-1">
      <rect
         style="opacity:0.15;fill:url(#linearGradient2908);fill-opacity:1;fill-rule:nonzero;stroke:#ffffff;stroke-width:0.5;stroke-linecap:round;stroke-linejoin:miter;stroke-miterlimit:4;stroke-opacity:1;stroke-dasharray:none;stroke-dashoffset:0;filter:url(#filter3794-9)"
         id="rect3171"
         clip-path="url(#clipPath3613-7)"
         y="15"
         x="15"
         ry="12"
         rx="12"
         height="66"
         width="66" />
    </g>
    <path
       style="opacity:0.7;fill:none;stroke:#ffffff;stroke-width:2;stroke-miterlimit:4;stroke-opacity:1;stroke-dasharray:none"
       d="m -29.078441,124.97651 -0.195596,-34.16398 c -0.02556,-4.462737 -0.04754,-7.860889 -0.651984,-11.605322 -0.09293,-0.575699 -0.30221,-1.233851 -0.782381,-1.564762 -0.359684,-0.247877 -0.868887,-0.169359 -1.303969,-0.130397 -0.315174,0.02823 -0.810797,0.774508 -0.977977,1.043175 -1.128723,1.813941 -0.84942,2.977526 -1.890754,4.563891 -0.657993,1.002383 -1.69011,1.705969 -2.607938,2.47754 -2.568567,2.15927 -5.366063,3.461844 -7.954209,5.998256 -4.236591,4.31717 -4.334785,10.127019 -3.651112,15.778019 0.539689,2.76642 1.199842,4.87538 2.738334,7.23703 0.721578,1.10765 1.679499,3.05115 2.999128,3.12952 0.216947,0.0129 0.364629,-0.25938 0.456389,-0.45639 0.330851,-0.71031 -0.200944,-1.65219 -0.39119,-2.41234 -0.558065,-2.22978 -0.949318,-3.49224 -1.108374,-5.54186 -0.168681,-2.17369 -0.134733,-4.44076 0.521588,-6.51985 0.885475,-3.653729 5.477492,-9.492222 8.73659,-11.60532 0.352917,-0.174265 0.819289,-0.301871 1.173572,-0.130396 0.369094,0.178643 0.651984,0.633121 0.651984,1.043175 0,12.756931 0.521588,39.379851 0.521588,39.379851 0,0 -0.09433,2.73419 0.130397,4.10751 0.262069,1.60154 0.47328,2.73465 1.434365,4.0423 1.009176,1.37308 2.536189,2.91918 4.042304,3.71631 1.737272,0.91947 3.686656,1.40655 5.607065,1.82556 3.559712,0.7593 7.519077,0.0126 10.953337,-1.56477 1.5635279,-0.80504 3.0007729,-1.9733 4.0423029,-3.39032 1.00395,-1.36588 1.691,-3.01996 1.955953,-4.69428 0.252191,-1.59368 0.126974,-3.29665 -0.39119,-4.82469 -0.514959,-1.51858 -1.507496,-2.87598 -2.607938,-4.0423 -0.960566,-1.01808 -2.140995,-1.84639 -3.3903179,-2.47754 -1.423339,-0.71906 -2.671308,-1.00608 -4.237899,-1.30397 -1.79799,-0.34189 -3.788952,-0.47084 -5.607065,-0.26079 -1.672989,0.19327 -3.268619,0.70043 -4.789768,1.42317 -0.872019,0.41433 -2.24501,1.58837 -3.425235,0.92397 z"
       id="path2895-8"
       sodipodi:nodetypes="csssssssccsssssccsscsssccssssssssc" />
    <path
       style="opacity:0.2;fill:none;stroke:#000000;stroke-width:2;stroke-miterlimit:4;stroke-opacity:1;stroke-dasharray:none"
       d="m -29.078441,122.97651 -0.195596,-34.16398 c -0.02556,-4.462737 -0.04754,-7.860889 -0.651984,-11.605322 -0.09293,-0.575699 -0.30221,-1.233851 -0.782381,-1.564762 -0.359684,-0.247877 -0.868887,-0.169359 -1.303969,-0.130397 -0.315174,0.02823 -0.810797,0.774508 -0.977977,1.043175 -1.128723,1.813941 -0.84942,2.977526 -1.890754,4.563891 -0.657993,1.002383 -1.69011,1.705969 -2.607938,2.47754 -2.568567,2.15927 -5.366063,3.461844 -7.954209,5.998256 -4.236591,4.31717 -4.334785,10.127019 -3.651112,15.778019 0.539689,2.76642 1.199842,4.87538 2.738334,7.23703 0.721578,1.10765 1.679499,3.05115 2.999128,3.12952 0.216947,0.0129 0.364629,-0.25938 0.456389,-0.45639 0.330851,-0.71031 -0.200944,-1.65219 -0.39119,-2.41234 -0.558065,-2.22978 -0.949318,-3.49224 -1.108374,-5.54186 -0.168681,-2.17369 -0.134733,-4.44076 0.521588,-6.51985 0.885475,-3.653729 5.477492,-9.492222 8.73659,-11.60532 0.352917,-0.174265 0.819289,-0.301871 1.173572,-0.130396 0.369094,0.178643 0.651984,0.633121 0.651984,1.043175 0,12.756931 0.521588,39.379851 0.521588,39.379851 0,0 -0.09433,2.73419 0.130397,4.10751 0.262069,1.60154 0.47328,2.73465 1.434365,4.0423 1.009176,1.37308 2.536189,2.91918 4.042304,3.71631 1.737272,0.91947 3.686656,1.40655 5.607065,1.82556 3.559712,0.7593 7.519077,0.0126 10.953337,-1.56477 1.5635279,-0.80504 3.0007729,-1.9733 4.0423029,-3.39032 1.00395,-1.36588 1.691,-3.01996 1.955953,-4.69428 0.252191,-1.59368 0.126974,-3.29665 -0.39119,-4.82469 -0.514959,-1.51858 -1.507496,-2.87598 -2.607938,-4.0423 -0.960566,-1.01808 -2.140995,-1.84639 -3.3903179,-2.47754 -1.423339,-0.71906 -2.671308,-1.00608 -4.237899,-1.30397 -1.79799,-0.34189 -3.788952,-0.47084 -5.607065,-0.26079 -1.672989,0.19327 -3.268619,0.70043 -4.789768,1.42317 -0.872019,0.41433 -2.24501,1.58837 -3.425235,0.92397 z"
       id="path2895-1"
       sodipodi:nodetypes="csssssssccsssssccsscsssccssssssssc" />
    <g
       transform="matrix(0.26079374,0,0,0.26079374,-2.8472851,94.885502)"
       id="g3800">
      <path
         style="fill:#3569c7;fill-opacity:1;stroke:#254b8f;stroke-width:3.83444786;stroke-opacity:1"
         d="m -100.582,111.54773 -0.75,-131.000003 c -0.098,-17.112131 -0.18229,-30.142169 -2.5,-44.5 -0.35634,-2.20749 -1.15881,-4.73114 -3,-6 -1.37919,-0.95047 -3.3317,-0.6494 -5,-0.5 -1.20852,0.10823 -3.10896,2.96981 -3.75,4 -4.32803,6.95546 -3.25706,11.417167 -7.25,17.5 -2.52304,3.843588 -6.48064,6.54145 -10,9.5 -9.84904,8.279607 -20.57589,13.274262 -30.5,23 -16.24499,16.55396323 -16.62151,38.831528 -14,60.5 2.06941,10.607691 4.60073,18.694384 10.5,27.75 2.76685,4.247231 6.43995,11.699471 11.5,12 0.83187,0.04941 1.39815,-0.994591 1.75,-1.75 1.26863,-2.723667 -0.77051,-6.335272 -1.5,-9.25 -2.13987,-8.549973 -3.64011,-13.390806 -4.25,-21.25 -0.6468,-8.334899 -0.51663,-17.027833 2,-25 3.39531,-14.010042 21.00316,-36.3974378 33.5,-44.5 1.35324,-0.668213 3.14152,-1.157509 4.5,-0.5 1.41527,0.684999 2.5,2.42767 2.5,4 0,48.915768 2,151.000003 2,151.000003 0,0 -0.36169,10.4841 0.5,15.75 1.00489,6.14104 1.81477,10.48589 5.5,15.5 3.86963,5.26501 9.724882,11.19345 15.500002,14.25 6.66148,3.52566 14.13629,5.39336 21.5,7 13.64953,2.91153 28.83151,0.0482 42,-6 5.995266,-3.08691 11.506308,-7.56653 15.5,-13 3.849593,-5.23743 6.4840495,-11.57989 7.4999995,-18 0.967013,-6.11086 0.486875,-12.64081 -1.5,-18.5 -1.9745805,-5.82294 -5.7804145,-11.02779 -9.9999995,-15.5 -3.68324,-3.90376 -8.209533,-7.07988 -13,-9.5 -5.457717,-2.75721 -10.242991,-3.85775 -16.25,-5 -6.8943,-1.31097 -14.52854,-1.80541 -21.5,-1 -6.41499,0.74111 -12.533347,2.68579 -18.366117,5.4571 -3.34371,1.58869 -8.608373,6.09051 -13.133885,3.5429 z"
         id="path2895"
         sodipodi:nodetypes="csssssssccsssssccsscsssccssssssssc" />
      <path
         sodipodi:type="inkscape:offset"
         inkscape:radius="-0.9775818"
         inkscape:original="M -165.90625 -97.15625 C -166.77531 -97.18112 -167.66585 -97.0747 -168.5 -97 C -169.70852 -96.891773 -171.60896 -94.03019 -172.25 -93 C -176.57803 -86.044542 -175.50706 -81.582833 -179.5 -75.5 C -182.02304 -71.656412 -185.98064 -68.95855 -189.5 -66 C -199.34904 -57.720393 -210.07589 -52.725738 -220 -43 C -236.24499 -26.446037 -236.62151 -4.168473 -234 17.5 C -231.93059 28.10769 -229.39927 36.19438 -223.5 45.25 C -220.73315 49.49723 -217.06005 56.94947 -212 57.25 C -211.16813 57.2994 -210.60185 56.25541 -210.25 55.5 C -209.96368 54.88528 -209.84617 54.21821 -209.84375 53.53125 C -211.83186 51.035704 -213.49976 47.817604 -214.90625 45.53125 C -220.35071 36.680891 -222.68389 28.773499 -224.59375 18.40625 C -227.01316 -2.771075 -226.68008 -24.54001 -211.6875 -40.71875 C -202.5285 -50.224038 -192.62098 -55.126815 -183.53125 -63.21875 C -180.28322 -66.11024 -176.60978 -68.743533 -174.28125 -72.5 C -170.59615 -78.444955 -171.58811 -82.795949 -167.59375 -89.59375 C -167.12696 -90.388163 -165.93564 -92.27175 -164.90625 -93.09375 L -163.875 -96.71875 C -164.48201 -97.023992 -165.19022 -97.135762 -165.90625 -97.15625 z "
         style="opacity:0.4;fill:url(#linearGradient3812);fill-opacity:1;stroke:none"
         id="path2947"
         d="m -165.9375,-96.1875 c -0.77026,-0.02204 -1.61401,0.07971 -2.46875,0.15625 0.0564,-0.0051 -0.18434,0.07458 -0.46875,0.3125 -0.28441,0.237919 -0.63946,0.600134 -0.96875,1 -0.65857,0.799732 -1.25641,1.7581 -1.5625,2.25 -2.09537,3.367409 -2.88454,6.069657 -3.65625,8.8125 -0.77171,2.742843 -1.54636,5.5209 -3.625,8.6875 -2.66523,4.060204 -6.72039,6.804123 -10.1875,9.71875 -9.96843,8.379973 -20.6454,13.341134 -30.4375,22.9375 -15.92782,16.230757 -16.32101,38.067156 -13.71875,59.625 0.003,0.0208 -0.003,0.0417 0,0.0625 2.05617,10.520751 4.53157,18.421817 10.34375,27.34375 1.41817,2.176945 3.01593,5.062947 4.84375,7.40625 1.82782,2.343303 3.83964,4.033508 5.90625,4.15625 -0.004,-2.36e-4 0.0617,0.0084 0.25,-0.21875 0.18831,-0.227152 0.39855,-0.616756 0.5625,-0.96875 0.18545,-0.39816 0.25634,-0.859888 0.28125,-1.34375 -1.95123,-2.54357 -3.59465,-5.586647 -4.90625,-7.71875 -5.51531,-8.965532 -7.89299,-17.017843 -9.8125,-27.4375 a 0.97767956,0.97767956 0 0 1 0,-0.0625 c -2.42913,-21.2624397 -2.12858,-43.412136 13.15625,-59.90625 a 0.97767956,0.97767956 0 0 1 0,-0.03125 c 9.28687,-9.637994 19.24605,-14.543497 28.21875,-22.53125 3.30128,-2.938896 6.86875,-5.523471 9.0625,-9.0625 1.76559,-2.848319 2.41245,-5.285887 3.125,-7.96875 0.71255,-2.682863 1.50126,-5.61708 3.5625,-9.125 0.45739,-0.778412 1.46779,-2.394547 2.65625,-3.46875 l 0.6875,-2.4375 c -0.28227,-0.05904 -0.51445,-0.178078 -0.84375,-0.1875 z"
         transform="translate(57.168002,27.547727)" />
      <path
         id="path4444"
         transform="matrix(3.8344479,0,0,3.8344479,-266.12109,-121.30468)"
         d="m 39.96875,21.625 -1.625,4.78125 c 0.04679,0.01585 0.07897,0.009 0.125,0.03125 0.55403,0.268153 0.90625,0.824106 0.90625,1.4375 0,12.744876 0.53125,39.375 0.53125,39.375 a 0.44216116,0.44216116 0 0 1 0,0.03125 c 0,0 -0.08144,2.738436 0.125,4 0.261323,1.596981 0.436537,2.6094 1.34375,3.84375 0.976928,1.329208 2.46859,2.84939 3.875,3.59375 1.671213,0.884508 3.591019,1.364567 5.5,1.78125 3.428919,0.72907 7.297397,0.03926 10.65625,-1.5 0.0053,-0.0027 0.02593,-0.0285 0.03125,-0.03125 1.50062,-0.775582 2.883262,-1.900726 3.875,-3.25 0.960081,-1.306204 1.621463,-2.897819 1.875,-4.5 0.241062,-1.523333 0.118039,-3.171057 -0.375,-4.625 -0.485204,-1.430845 -1.425998,-2.736701 -2.5,-3.875 -0.918637,-0.973637 -2.07084,-1.763506 -3.28125,-2.375 -1.372763,-0.693513 -2.567277,-0.985046 -4.125,-1.28125 -1.265931,-0.24072 -2.614406,-0.364684 -3.9375,-0.34375 -4.245751,1.28087 -8.283673,3.084721 -11.25,6.21875 a 0.44216116,0.44216116 0 0 1 -0.75,-0.28125 l -1,-43.03125 z M 52.9375,58.84375 c 1.319063,-0.02149 2.714276,0.105209 3.96875,0.34375 1.552595,0.295231 2.699887,0.561614 4.0625,1.25 1.203567,0.608035 2.345824,1.38544 3.25,2.34375 1.063051,1.126694 1.990025,2.463264 2.46875,3.875 0.48766,1.43808 0.61261,3.029728 0.375,4.53125 -0.250006,1.579872 -0.893551,3.144741 -1.84375,4.4375 -0.980103,1.333442 -2.333471,2.484045 -3.8125,3.25 -0.0076,0.004 -0.0236,-0.0039 -0.03125,0 -3.339881,1.528372 -7.199406,2.224035 -10.59375,1.5 -1.911042,-0.416957 -3.813262,-0.873815 -5.46875,-1.75 -1.37828,-0.729471 -2.874115,-2.243216 -3.84375,-3.5625 -0.891493,-1.212961 -1.051371,-2.216702 -1.3125,-3.8125 -0.201409,-1.230798 -0.125,-3.96875 -0.125,-3.96875 a 0.56061306,0.56061306 0 0 0 0,-0.03125 c 0,0 -0.02335,-0.66523 -0.03125,-0.96875 l 1.1875,-1.125 A 0.56061306,0.56061306 0 0 0 41.8125,65 c 2.936121,-3.102114 6.902579,-4.878958 11.125,-6.15625 z"
         style="opacity:0.2;fill:url(#linearGradient4497);fill-opacity:1;stroke:none" />
      <path
         style="opacity:0.5;fill:url(#linearGradient3816);fill-opacity:1;stroke:none"
         d="m -157.15448,83.979184 c -1.48441,3.19121 -2.62995,2.952756 -3.53554,12.020816 l 1.90165,0.5 c -0.15249,-4.95537 2.33749,-8.613255 4.10876,-12.344038 l -2.47487,-0.176778 z"
         id="path3774"
         sodipodi:nodetypes="ccccc"
         transform="matrix(1.3339747,0,0,1.0924962,109.70574,22.018993)" />
    </g>
    <path
       transform="translate(-72.25,63.25)"
       d="M 52.9375,58.84375 C 48.715079,60.121042 44.748621,61.897886 41.8125,65 a 0.56061306,0.56061306 0 0 1 -0.625,0.15625 L 40,66.28125 c 0.0079,0.30352 0.03125,0.96875 0.03125,0.96875 a 0.56061306,0.56061306 0 0 1 0,0.03125 c 0,0 -0.07641,2.737952 0.125,3.96875 0.261129,1.595798 0.421007,2.599539 1.3125,3.8125 0.969635,1.319284 2.46547,2.833029 3.84375,3.5625 1.655488,0.876185 3.557708,1.333043 5.46875,1.75 3.394344,0.724035 7.253869,0.02837 10.59375,-1.5 0.0077,-0.0039 0.0236,0.004 0.03125,0 1.479029,-0.765955 2.832397,-1.916558 3.8125,-3.25 0.950199,-1.292759 1.593744,-2.857628 1.84375,-4.4375 0.23761,-1.501522 0.11266,-3.09317 -0.375,-4.53125 -0.478725,-1.411736 -1.405699,-2.748306 -2.46875,-3.875 -0.904176,-0.95831 -2.046433,-1.735715 -3.25,-2.34375 -1.362613,-0.688386 -2.509905,-0.954769 -4.0625,-1.25 -1.254474,-0.238541 -2.649687,-0.365237 -3.96875,-0.34375 z"
       id="path4440"
       style="opacity:0.5;fill:url(#radialGradient3647);fill-opacity:1;stroke:none"
       inkscape:original="M 52.875 58.28125 C 48.572237 59.573947 44.464537 61.393813 41.40625 64.625 L 41.40625 64.1875 L 39.4375 66.0625 C 39.4391 66.14444 39.46875 67.25 39.46875 67.25 C 39.46875 67.25 39.36902 69.970436 39.59375 71.34375 C 39.855819 72.945295 40.070165 74.098602 41.03125 75.40625 C 42.040425 76.779332 43.556385 78.327871 45.0625 79.125 C 46.799772 80.04447 48.735841 80.518499 50.65625 80.9375 C 54.215962 81.696809 58.19074 80.95233 61.625 79.375 C 63.188528 78.569953 64.61472 77.385765 65.65625 75.96875 C 66.660201 74.602861 67.360047 72.955574 67.625 71.28125 C 67.877193 69.687576 67.736916 67.99679 67.21875 66.46875 C 66.703792 64.950163 65.725442 63.572574 64.625 62.40625 C 63.664434 61.388173 62.468075 60.568652 61.21875 59.9375 C 59.795413 59.218437 58.56659 58.922892 57 58.625 C 55.685091 58.374967 54.25324 58.2542 52.875 58.28125 z "
       inkscape:radius="-0.56055701"
       sodipodi:type="inkscape:offset" />
  </g>
</svg>
