<?xml version="1.0" encoding="UTF-8" standalone="no"?>
<!-- Created with Inkscape (http://www.inkscape.org/) -->

<svg
   xmlns:dc="http://purl.org/dc/elements/1.1/"
   xmlns:cc="http://creativecommons.org/ns#"
   xmlns:rdf="http://www.w3.org/1999/02/22-rdf-syntax-ns#"
   xmlns:svg="http://www.w3.org/2000/svg"
   xmlns="http://www.w3.org/2000/svg"
   xmlns:xlink="http://www.w3.org/1999/xlink"
   xmlns:sodipodi="http://sodipodi.sourceforge.net/DTD/sodipodi-0.dtd"
   xmlns:inkscape="http://www.inkscape.org/namespaces/inkscape"
   version="1.0"
   width="96"
   height="96"
   id="svg2408"
   inkscape:version="0.48.0 r9654"
   sodipodi:docname="folder-open.svg">
  <metadata
     id="metadata55">
    <rdf:RDF>
      <cc:Work
         rdf:about="">
        <dc:format>image/svg+xml</dc:format>
        <dc:type
           rdf:resource="http://purl.org/dc/dcmitype/StillImage" />
      </cc:Work>
    </rdf:RDF>
  </metadata>
  <sodipodi:namedview
     pagecolor="#ffffff"
     bordercolor="#666666"
     borderopacity="1"
     objecttolerance="10"
     gridtolerance="10"
     guidetolerance="10"
     inkscape:pageopacity="0"
     inkscape:pageshadow="2"
     inkscape:window-width="768"
     inkscape:window-height="480"
     id="namedview53"
     showgrid="false"
     inkscape:zoom="2.8119546"
     inkscape:cx="48"
     inkscape:cy="45.59375"
     inkscape:window-x="11"
     inkscape:window-y="24"
     inkscape:window-maximized="0"
     inkscape:current-layer="svg2408" />
  <defs
     id="defs2410">
    <linearGradient
       id="linearGradient3656">
      <stop
         id="stop3658"
         style="stop-color:#000000;stop-opacity:1"
         offset="0" />
      <stop
         id="stop3675"
         style="stop-color:#000000;stop-opacity:0.30232558"
         offset="0.5" />
      <stop
         id="stop3660"
         style="stop-color:#000000;stop-opacity:0"
         offset="1" />
    </linearGradient>
    <linearGradient
       id="linearGradient3637">
      <stop
         id="stop3645"
         style="stop-color:#f0f0f0;stop-opacity:1"
         offset="0" />
      <stop
         id="stop3641"
         style="stop-color:#f5f5f5;stop-opacity:1"
         offset="1" />
    </linearGradient>
    <linearGradient
       id="linearGradient3348">
      <stop
         id="stop3350"
         style="stop-color:#e0c693;stop-opacity:1"
         offset="0" />
      <stop
         id="stop3356"
         style="stop-color:#c0984f;stop-opacity:1"
         offset="0.71691591" />
      <stop
         id="stop3352"
         style="stop-color:#a67315;stop-opacity:1"
         offset="1" />
    </linearGradient>
    <linearGradient
       id="linearGradient3187">
      <stop
         id="stop3189"
         style="stop-color:#c6953a;stop-opacity:1"
         offset="0" />
      <stop
         id="stop3191"
         style="stop-color:#dec18c;stop-opacity:1"
         offset="1" />
    </linearGradient>
    <linearGradient
       x1="45.447727"
       y1="80.471962"
       x2="45.447727"
       y2="7.0165396"
       id="ButtonShadow"
       gradientUnits="userSpaceOnUse"
       gradientTransform="matrix(1.0058652,0,0,0.994169,0,12)">
      <stop
         id="stop3750"
         style="stop-color:#000000;stop-opacity:1"
         offset="0" />
      <stop
         id="stop3752"
         style="stop-color:#000000;stop-opacity:0.58823532"
         offset="1" />
    </linearGradient>
    <linearGradient
       id="linearGradient3737">
      <stop
         id="stop3739"
         style="stop-color:#ffffff;stop-opacity:1"
         offset="0" />
      <stop
         id="stop3741"
         style="stop-color:#ffffff;stop-opacity:0"
         offset="1" />
    </linearGradient>
    <linearGradient
       x1="48"
       y1="66"
       x2="48"
       y2="5.9877172"
       id="linearGradient3706"
       xlink:href="#linearGradient3187"
       gradientUnits="userSpaceOnUse"
       gradientTransform="translate(0,22)" />
    <filter
       x="-0.29508197"
       y="-0.46153846"
       width="1.5901639"
       height="1.9230769"
       color-interpolation-filters="sRGB"
       id="filter3179">
      <feGaussianBlur
         id="feGaussianBlur3181"
         stdDeviation="6.6964288" />
    </filter>
    <filter
       color-interpolation-filters="sRGB"
       id="filter3174">
      <feGaussianBlur
         id="feGaussianBlur3176"
         stdDeviation="1.71" />
    </filter>
    <linearGradient
       x1="23.607143"
       y1="6"
       x2="23.607143"
       y2="58.466385"
       id="linearGradient4010"
       xlink:href="#linearGradient3737"
       gradientUnits="userSpaceOnUse" />
    <linearGradient
       x1="45.447727"
       y1="80.471962"
       x2="45.447727"
       y2="5.297224"
       id="linearGradient4018"
       xlink:href="#ButtonShadow"
       gradientUnits="userSpaceOnUse"
       gradientTransform="matrix(1.0058652,0,0,0.994169,0,12)" />
    <linearGradient
       x1="34.85965"
       y1="17.736111"
       x2="34.85965"
       y2="32.281696"
       id="linearGradient4023"
       xlink:href="#linearGradient3348"
       gradientUnits="userSpaceOnUse"
       gradientTransform="matrix(0.72,0,0,0.72,1.92,-5.52)" />
    <linearGradient
       id="linearGradient3737-5">
      <stop
         id="stop3739-0"
         style="stop-color:#ffffff;stop-opacity:1"
         offset="0" />
      <stop
         id="stop3741-4"
         style="stop-color:#ffffff;stop-opacity:0"
         offset="1" />
    </linearGradient>
    <radialGradient
       cx="48"
       cy="90.171875"
       r="42"
       fx="48"
       fy="90.171875"
       id="radialGradient2862"
       xlink:href="#linearGradient3737-5"
       gradientUnits="userSpaceOnUse"
       gradientTransform="matrix(1.1573129,0,0,0.99590774,-7.551021,0.1971319)" />
    <linearGradient
       x1="36.357143"
       y1="18"
       x2="36.357143"
       y2="73.994667"
       id="linearGradient2865"
       xlink:href="#linearGradient3737"
       gradientUnits="userSpaceOnUse" />
    <linearGradient
       x1="19.946079"
       y1="28.251511"
       x2="19.946079"
       y2="18.047863"
       id="linearGradient3643"
       xlink:href="#linearGradient3637"
       gradientUnits="userSpaceOnUse" />
    <linearGradient
       x1="18"
       y1="19"
       x2="18"
       y2="16"
       id="linearGradient3666"
       xlink:href="#linearGradient3656"
       gradientUnits="userSpaceOnUse"
       gradientTransform="matrix(1.1111112,0,0,1.780582,-5.3333338,-5.6116384)" />
    <linearGradient
       inkscape:collect="always"
       xlink:href="#linearGradient3637"
       id="linearGradient3057"
       gradientUnits="userSpaceOnUse"
       x1="19.946079"
       y1="28.251511"
       x2="19.946079"
       y2="18.047863" />
    <linearGradient
       x1="36.357143"
       y1="6"
       x2="36.357143"
       y2="63.893143"
       id="linearGradient3188-6"
       xlink:href="#linearGradient3737-9"
       gradientUnits="userSpaceOnUse" />
    <linearGradient
       id="linearGradient3737-9">
      <stop
         id="stop3739-7"
         style="stop-color:#ffffff;stop-opacity:1"
         offset="0" />
      <stop
         id="stop3741-7"
         style="stop-color:#ffffff;stop-opacity:0"
         offset="1" />
    </linearGradient>
    <linearGradient
       x1="48"
       y1="90"
       x2="48"
       y2="5.9877172"
       id="linearGradient3617"
       xlink:href="#linearGradient3187-1"
       gradientUnits="userSpaceOnUse"
       gradientTransform="matrix(1,0,0,0.74261863,0,23.440633)" />
    <linearGradient
       id="linearGradient3187-1">
      <stop
         id="stop3189-1"
         style="stop-color:#282828;stop-opacity:1"
         offset="0" />
      <stop
         id="stop3191-5"
         style="stop-color:#5a5a5a;stop-opacity:1"
         offset="1" />
    </linearGradient>
    <linearGradient
       x1="23.607143"
       y1="6"
       x2="23.607143"
       y2="58.466385"
       id="linearGradient4010-7"
       xlink:href="#linearGradient3737-4"
       gradientUnits="userSpaceOnUse"
       gradientTransform="matrix(1,0,0,1.0009813,0,-0.0737193)" />
    <linearGradient
       id="linearGradient3737-4">
      <stop
         id="stop3739-3"
         style="stop-color:#ffffff;stop-opacity:1"
         offset="0" />
      <stop
         id="stop3741-1"
         style="stop-color:#ffffff;stop-opacity:0"
         offset="1" />
    </linearGradient>
    <linearGradient
       x1="35.279781"
       y1="40.423199"
       x2="35.489845"
       y2="20.879257"
       id="linearGradient4023-4"
       xlink:href="#linearGradient3187-1-6"
       gradientUnits="userSpaceOnUse"
       gradientTransform="matrix(0.72,0,0,0.72,1.92,-5.52)" />
    <linearGradient
       id="linearGradient3187-1-6">
      <stop
         id="stop3189-1-9"
         style="stop-color:#282828;stop-opacity:1"
         offset="0" />
      <stop
         id="stop3191-5-4"
         style="stop-color:#5a5a5a;stop-opacity:1"
         offset="1" />
    </linearGradient>
    <linearGradient
       inkscape:collect="always"
       xlink:href="#linearGradient3637"
       id="linearGradient3140"
       gradientUnits="userSpaceOnUse"
       x1="19.946079"
       y1="28.251511"
       x2="19.946079"
       y2="18.047863"
       gradientTransform="translate(4.3183391,-3.3922262)" />
    <linearGradient
       inkscape:collect="always"
       xlink:href="#linearGradient3187-1-62"
       id="linearGradient3280"
       gradientUnits="userSpaceOnUse"
       gradientTransform="matrix(0.76679009,0,0,0.8618447,1.3992595,12.710287)"
       x1="48"
       y1="90"
       x2="48"
       y2="5.9877172" />
    <linearGradient
       id="linearGradient3187-1-62">
      <stop
         id="stop3189-1-8"
         style="stop-color:#282828;stop-opacity:1"
         offset="0" />
      <stop
         offset="0.5"
         style="stop-color:#545454;stop-opacity:1;"
         id="stop3891" />
      <stop
         id="stop3191-5-9"
         style="stop-color:#767373;stop-opacity:1;"
         offset="1" />
    </linearGradient>
    <linearGradient
       inkscape:collect="always"
       xlink:href="#linearGradient3187-1-62"
       id="linearGradient4020"
       gradientUnits="userSpaceOnUse"
       gradientTransform="matrix(1,0,0,0.75955313,0,21.916528)"
       x1="48"
       y1="90"
       x2="48"
       y2="5.9877172" />
    <linearGradient
       inkscape:collect="always"
       xlink:href="#linearGradient3187-1-62"
       id="linearGradient4022"
       gradientUnits="userSpaceOnUse"
       gradientTransform="matrix(0.72,0,0,0.72,1.92,-5.52)"
       x1="35.279781"
       y1="40.423199"
       x2="35.489845"
       y2="20.879257" />
    <linearGradient
       inkscape:collect="always"
       xlink:href="#linearGradient3656"
       id="linearGradient4026"
       gradientUnits="userSpaceOnUse"
       gradientTransform="matrix(1.1064976,0,0,1.780582,-94.302192,-7.9861967)"
       x1="18"
       y1="19"
       x2="18"
       y2="16" />
    <linearGradient
       inkscape:collect="always"
       xlink:href="#linearGradient3737-9-0"
       id="linearGradient3300"
       gradientUnits="userSpaceOnUse"
       x1="36.357143"
       y1="6"
       x2="36.357143"
       y2="63.893143" />
    <linearGradient
       id="linearGradient3737-9-0">
      <stop
         id="stop3739-7-7"
         style="stop-color:#ffffff;stop-opacity:1"
         offset="0" />
      <stop
         id="stop3741-7-3"
         style="stop-color:#ffffff;stop-opacity:0"
         offset="1" />
    </linearGradient>
    <linearGradient
       y2="63.893143"
       x2="36.357143"
       y1="6"
       x1="36.357143"
       gradientUnits="userSpaceOnUse"
       id="linearGradient3318"
       xlink:href="#linearGradient3737-9-0"
       inkscape:collect="always" />
    <linearGradient
       inkscape:collect="always"
       xlink:href="#linearGradient3656"
       id="linearGradient4047"
       gradientUnits="userSpaceOnUse"
       gradientTransform="matrix(1.1064976,0,0,1.5861698,-94.302192,-4.8756005)"
       x1="18"
       y1="19"
       x2="18"
       y2="16" />
    <linearGradient
       inkscape:collect="always"
       xlink:href="#linearGradient3737-9-0"
       id="linearGradient4049"
       gradientUnits="userSpaceOnUse"
       x1="36.357143"
       y1="6"
       x2="36.357143"
       y2="63.893143" />
  </defs>
  <g
     id="layer2"
     style="display:inline">
    <path
       d="M 14.96875,8.8125 C 13.32891,8.8125 12,10.09475 12,11.6875 l 0,7.65625 C 9.6664933,20.164656 8,22.378887 8,25 l 0,5.21875 C 6.2723951,31.312574 5,33.042083 5,35 l 0,51 c 0,3.324 2.676,6 6,6 l 74,0 c 3.324,0 6,-2.676 6,-6 l 0,-51 c 0,-1.940712 -1.275252,-3.654683 -3,-4.75 L 88,25 C 88,21.717446 85.391284,19.06559 82.125,19 81.386647,16.517329 80.495259,14.5625 79.5,14.5625 l -43.34375,0 -1.46875,-2.875 c -0.733359,-1.424599 -1.32891,-2.875 -2.96875,-2.875 l -16.75,0 z"
       id="rect3745"
       style="opacity:0.9;fill:url(#linearGradient4018);fill-opacity:1;fill-rule:nonzero;stroke:none;filter:url(#filter3174)" />
  </g>
  <g
     id="layer3"
     style="display:inline">
    <path
       d="M 14.88,6 C 13.28448,6 12,7.28448 12,8.88 l 0,7.2 0,50.4 0,4.32 c 0,2.39328 1.92672,4.32 4.32,4.32 l 63.36,0 c 2.39328,0 4.32,-1.92672 4.32,-4.32 l 0,-54.72 c 0,-2.39328 -1.92672,-4.32 -4.32,-4.32 l -43.2,0 -1.44,-2.88 C 34.326462,7.4529235 33.75552,6 32.16,6 L 14.88,6 z"
       id="rect3325"
       style="fill:url(#linearGradient4023);fill-opacity:1;fill-rule:nonzero;stroke:none;display:inline" />
    <path
       d="M 14.875,6 C 13.27948,6 12,7.27948 12,8.875 l 0,7.21875 0,50.375 0,4.34375 c 0,2.393277 1.91922,4.3125 4.3125,4.3125 l 63.375,0 C 82.08078,75.124997 84,73.20578 84,70.8125 L 84,16.09375 C 84,13.70047 82.08078,11.75 79.6875,11.75 l -43.21875,0 -1.4375,-2.875 C 34.317711,7.4479234 33.75177,6 32.15625,6 L 14.875,6 z m 0,1.9375 17.28125,0 c 0.48716,0 0.660447,0.1126732 0.96875,0.5 0.308303,0.3873268 0.629671,1.0718434 1,1.8125 l 1.4375,2.875 c 0.173379,0.341986 0.522842,0.558894 0.90625,0.5625 l 43.21875,0 c 1.835408,0 3.28125,1.468154 3.28125,3.3125 l 0,54.71875 c 0,1.844346 -1.436902,3.281248 -3.28125,3.28125 l -63.375,0 c -1.844346,0 -3.28125,-1.436907 -3.28125,-3.28125 l 0,-4.34375 0,-50.375 0,-7.21875 c 0,-1.0465864 0.797164,-1.84375 1.84375,-1.84375 z"
       id="path3997"
       style="opacity:0.3;fill:url(#linearGradient4010);fill-opacity:1;fill-rule:nonzero;stroke:none;display:inline" />
  </g>
  <g
     id="layer1">
    <path
       inkscape:connector-curvature="0"
       d="M 14.88,6 C 13.28448,6 12,7.28448 12,8.88 l 0,7.2 0,50.4 0,4.32 c 0,2.39328 1.92672,4.32 4.32,4.32 l 63.36,0 c 2.39328,0 4.32,-1.92672 4.32,-4.32 l 0,-54.72 c 0,-2.39328 -1.92672,-4.32 -4.32,-4.32 l -43.2,0 -1.44,-2.88 C 34.326462,7.4529235 33.75552,6 32.16,6 L 14.88,6 z"
       id="rect3325-2"
       style="fill:url(#linearGradient4022);fill-opacity:1;fill-rule:nonzero;stroke:none;display:inline" />
    <path
       d="M 14.875,5.932168 C 13.27948,5.932168 12,7.2129042 12,8.8099895 l 0,7.2258335 0,50.424433 0,4.348012 c 0,2.395625 1.91922,4.316732 4.3125,4.316732 l 63.375,0 C 82.08078,75.124997 84,73.203896 84,70.808268 l 0,-54.772445 c 0,-2.395628 -1.91922,-4.348012 -4.3125,-4.348012 l -43.21875,0 -1.4375,-2.8778215 C 34.317711,7.3815132 33.75177,5.932168 32.15625,5.932168 l -17.28125,0 z m 0,1.9394023 17.28125,0 c 0.48716,0 0.660447,0.112783 0.96875,0.5004904 0.308303,0.3877063 0.629671,1.0728955 1,1.8142773 l 1.4375,2.877822 c 0.173379,0.342322 0.522842,0.559442 0.90625,0.563052 l 43.21875,0 c 1.835408,0 3.28125,1.469595 3.28125,3.315749 l 0,54.772446 c 0,1.846156 -1.436902,3.284468 -3.28125,3.28447 l -63.375,0 c -1.844346,0 -3.28125,-1.438316 -3.28125,-3.28447 l 0,-4.348012 0,-50.424434 0,-7.2258319 c 0,-1.0476136 0.797164,-1.8455588 1.84375,-1.8455588 z"
       id="path3997-2"
       style="opacity:0.3;fill:url(#linearGradient4010-7);fill-opacity:1;fill-rule:nonzero;stroke:none;display:inline"
       inkscape:connector-curvature="0" />
    <rect
       width="84"
       height="62"
       rx="6"
       ry="6"
       x="6"
       y="28"
       id="rect2419"
       style="fill:url(#linearGradient3706);fill-opacity:1;fill-rule:nonzero;stroke:none" />
    <path
       d="M 12,28 C 8.1664778,27.865356 5.437668,31.719831 6,35.324934 6.0182267,55.046578 5.9635941,64.770241 6.027225,84.490627 5.4042181,86.817486 10.106592,90.112109 9.4375,89.28125 6.2443569,87.50699 7.1210795,83.590903 7,80.570955 7.0171381,61.875988 6.965773,53.179319 7.02559,34.485413 7.2333142,31.245774 10.611618,29.546599 13.545756,30 c 23.656065,0.01707 47.313826,-0.03414 70.968831,0.02559 3.239639,0.207724 4.938814,3.586028 4.485413,6.520166 -0.02354,19.664295 0.04703,29.331652 -0.03517,48.994038 0.412935,2.431244 -5.152855,5.528097 -1.087717,2.991175 C 90.899219,86.11209 89.784847,82.026839 90,78.687666 89.979342,60.25365 90.041266,51.817564 89.969136,33.384839 89.719134,29.67006 85.894704,27.489808 82.454244,28 58.969496,28 35.484748,28 12,28 z"
       id="rect3728"
       style="opacity:0.5;fill:url(#linearGradient2865);fill-opacity:1;fill-rule:nonzero;stroke:none" />
    <rect
       width="54.464287"
       height="34.82143"
       rx="9"
       ry="9"
       x="13.306199"
       y="13.887781"
       transform="matrix(0.8917533,0,0,0.69625935,12.134153,30.330503)"
       id="rect2399"
       style="opacity:0.15;fill:#ffffff;fill-opacity:1;fill-rule:nonzero;stroke:none;filter:url(#filter3179)" />
    <path
       d="M 12,90 C 8.1664778,90.134644 5.437668,86.280169 6,82.675066 6.0182267,62.953422 5.9635941,53.229759 6.027225,33.509373 5.4042181,31.182514 10.106592,27.887891 9.4375,28.71875 6.2443569,30.49301 7.1210795,34.409097 7,37.429045 7.0171381,56.124012 6.965773,64.820681 7.02559,83.514587 7.2333142,86.754226 10.611618,88.453401 13.545756,88 37.201821,87.982926 60.859582,88.034139 84.514587,87.97441 87.754226,87.766686 89.453401,84.388382 89,81.454244 88.976458,61.789949 89.047025,52.122592 88.96483,32.460206 89.377765,30.028962 83.811975,26.932109 87.877113,29.469031 90.899219,31.88791 89.784847,35.973161 90,39.312334 89.979342,57.74635 90.041266,66.182436 89.969136,84.615161 89.719134,88.32994 85.894704,90.510192 82.454244,90 58.969496,90 35.484748,90 12,90 z"
       id="path3615"
       style="opacity:0.2;fill:url(#radialGradient2862);fill-opacity:1;fill-rule:nonzero;stroke:none" />
    <g
       id="layer4-6"
       transform="matrix(1,0,0,0.73734008,0,23.872905)">
      <path
         inkscape:connector-curvature="0"
         d="M 12,6 C 8.676,6 6,8.676 6,12 l 0,2 0,68 0,2 c 0,0.334721 0.04135,0.6507 0.09375,0.96875 0.0487,0.295596 0.09704,0.596915 0.1875,0.875 0.00988,0.03038 0.020892,0.0636 0.03125,0.09375 0.098865,0.287771 0.2348802,0.547452 0.375,0.8125 0.1445918,0.273507 0.3156161,0.535615 0.5,0.78125 0.1843839,0.245635 0.3737765,0.473472 0.59375,0.6875 0.439947,0.428056 0.94291,0.814526 1.5,1.09375 0.278545,0.139612 0.5734731,0.246947 0.875,0.34375 -0.2562018,-0.100222 -0.4867109,-0.236272 -0.71875,-0.375 -0.00741,-0.0044 -0.023866,0.0045 -0.03125,0 -0.031933,-0.0193 -0.062293,-0.04251 -0.09375,-0.0625 -0.120395,-0.0767 -0.2310226,-0.163513 -0.34375,-0.25 -0.1061728,-0.0808 -0.2132809,-0.161112 -0.3125,-0.25 C 8.4783201,88.557317 8.3087904,88.373362 8.15625,88.1875 8.0486711,88.057245 7.9378561,87.922215 7.84375,87.78125 7.818661,87.74287 7.805304,87.69538 7.78125,87.65625 7.716487,87.553218 7.6510225,87.451733 7.59375,87.34375 7.4927417,87.149044 7.3880752,86.928049 7.3125,86.71875 7.30454,86.69694 7.288911,86.6782 7.28125,86.65625 7.2494249,86.5643 7.2454455,86.469419 7.21875,86.375 7.1884177,86.268382 7.1483606,86.171969 7.125,86.0625 7.0521214,85.720988 7,85.364295 7,85 L 7,83 7,15 7,13 C 7,10.218152 9.2181517,8 12,8 l 2,0 68,0 2,0 c 2.781848,0 5,2.218152 5,5 l 0,2 0,68 0,2 c 0,0.364295 -0.05212,0.720988 -0.125,1.0625 -0.04415,0.206893 -0.08838,0.397658 -0.15625,0.59375 -0.0077,0.02195 -0.0233,0.04069 -0.03125,0.0625 -0.06274,0.173739 -0.138383,0.367449 -0.21875,0.53125 -0.04158,0.0828 -0.07904,0.169954 -0.125,0.25 -0.0546,0.09721 -0.126774,0.18835 -0.1875,0.28125 -0.09411,0.140965 -0.204921,0.275995 -0.3125,0.40625 -0.143174,0.17445 -0.303141,0.346998 -0.46875,0.5 -0.01117,0.0102 -0.01998,0.02115 -0.03125,0.03125 -0.138386,0.125556 -0.285091,0.234436 -0.4375,0.34375 -0.102571,0.07315 -0.204318,0.153364 -0.3125,0.21875 -0.0074,0.0045 -0.02384,-0.0044 -0.03125,0 -0.232039,0.138728 -0.462548,0.274778 -0.71875,0.375 0.301527,-0.0968 0.596455,-0.204138 0.875,-0.34375 0.55709,-0.279224 1.060053,-0.665694 1.5,-1.09375 0.219973,-0.214028 0.409366,-0.441865 0.59375,-0.6875 0.184384,-0.245635 0.355408,-0.507743 0.5,-0.78125 0.14012,-0.265048 0.276135,-0.524729 0.375,-0.8125 0.01041,-0.03078 0.02133,-0.06274 0.03125,-0.09375 0.09046,-0.278085 0.1388,-0.579404 0.1875,-0.875 C 89.95865,84.6507 90,84.334721 90,84 l 0,-2 0,-68 0,-2 C 90,8.676 87.324,6 84,6 L 12,6 z"
         id="rect3728-3"
         style="opacity:0.3;fill:url(#linearGradient3188-6);fill-opacity:1;fill-rule:nonzero;stroke:none" />
    </g>
    <rect
       style="fill:#f0f0f0;fill-opacity:1;fill-rule:nonzero;stroke:none"
       id="rect3136"
       y="18.263126"
       x="7.6608996"
       ry="2.3914509"
       rx="5.7627287"
       height="13.565339"
       width="80.678207" />
    <rect
       width="84"
       height="63.802464"
       rx="6"
       ry="4.5573187"
       x="6"
       y="26.473846"
       id="rect2419-6"
       style="fill:url(#linearGradient4020);fill-opacity:1;fill-rule:nonzero;stroke:none" />
  </g>
  <g
     style="display:inline"
     id="layer4-6-8"
     transform="matrix(1,0,0,0.75340416,0,22.43266)">
    <path
       inkscape:connector-curvature="0"
       d="M 12,6 C 8.676,6 6,8.676 6,12 l 0,2 0,68 0,2 c 0,0.334721 0.04135,0.6507 0.09375,0.96875 0.0487,0.295596 0.09704,0.596915 0.1875,0.875 0.00988,0.03038 0.020892,0.0636 0.03125,0.09375 0.098865,0.287771 0.2348802,0.547452 0.375,0.8125 0.1445918,0.273507 0.3156161,0.535615 0.5,0.78125 0.1843839,0.245635 0.3737765,0.473472 0.59375,0.6875 0.439947,0.428056 0.94291,0.814526 1.5,1.09375 0.278545,0.139612 0.5734731,0.246947 0.875,0.34375 -0.2562018,-0.100222 -0.4867109,-0.236272 -0.71875,-0.375 -0.00741,-0.0044 -0.023866,0.0045 -0.03125,0 -0.031933,-0.0193 -0.062293,-0.04251 -0.09375,-0.0625 -0.120395,-0.0767 -0.2310226,-0.163513 -0.34375,-0.25 -0.1061728,-0.0808 -0.2132809,-0.161112 -0.3125,-0.25 C 8.4783201,88.557317 8.3087904,88.373362 8.15625,88.1875 8.0486711,88.057245 7.9378561,87.922215 7.84375,87.78125 7.818661,87.74287 7.805304,87.69538 7.78125,87.65625 7.716487,87.553218 7.6510225,87.451733 7.59375,87.34375 7.4927417,87.149044 7.3880752,86.928049 7.3125,86.71875 7.30454,86.69694 7.288911,86.6782 7.28125,86.65625 7.2494249,86.5643 7.2454455,86.469419 7.21875,86.375 7.1884177,86.268382 7.1483606,86.171969 7.125,86.0625 7.0521214,85.720988 7,85.364295 7,85 L 7,83 7,15 7,13 C 7,10.218152 9.2181517,8 12,8 l 2,0 68,0 2,0 c 2.781848,0 5,2.218152 5,5 l 0,2 0,68 0,2 c 0,0.364295 -0.05212,0.720988 -0.125,1.0625 -0.04415,0.206893 -0.08838,0.397658 -0.15625,0.59375 -0.0077,0.02195 -0.0233,0.04069 -0.03125,0.0625 -0.06274,0.173739 -0.138383,0.367449 -0.21875,0.53125 -0.04158,0.0828 -0.07904,0.169954 -0.125,0.25 -0.0546,0.09721 -0.126774,0.18835 -0.1875,0.28125 -0.09411,0.140965 -0.204921,0.275995 -0.3125,0.40625 -0.143174,0.17445 -0.303141,0.346998 -0.46875,0.5 -0.01117,0.0102 -0.01998,0.02115 -0.03125,0.03125 -0.138386,0.125556 -0.285091,0.234436 -0.4375,0.34375 -0.102571,0.07315 -0.204318,0.153364 -0.3125,0.21875 -0.0074,0.0045 -0.02384,-0.0044 -0.03125,0 -0.232039,0.138728 -0.462548,0.274778 -0.71875,0.375 0.301527,-0.0968 0.596455,-0.204138 0.875,-0.34375 0.55709,-0.279224 1.060053,-0.665694 1.5,-1.09375 0.219973,-0.214028 0.409366,-0.441865 0.59375,-0.6875 0.184384,-0.245635 0.355408,-0.507743 0.5,-0.78125 0.14012,-0.265048 0.276135,-0.524729 0.375,-0.8125 0.01041,-0.03078 0.02133,-0.06274 0.03125,-0.09375 0.09046,-0.278085 0.1388,-0.579404 0.1875,-0.875 C 89.95865,84.6507 90,84.334721 90,84 l 0,-2 0,-68 0,-2 C 90,8.676 87.324,6 84,6 L 12,6 z"
       id="rect3728-3-2"
       style="opacity:0.3;fill:url(#linearGradient4049);fill-opacity:1;fill-rule:nonzero;stroke:none" />
  </g>
</svg>
