<?xml version="1.0" encoding="UTF-8" standalone="no"?>
<!-- Created with Inkscape (http://www.inkscape.org/) -->

<svg
   xmlns:dc="http://purl.org/dc/elements/1.1/"
   xmlns:cc="http://creativecommons.org/ns#"
   xmlns:rdf="http://www.w3.org/1999/02/22-rdf-syntax-ns#"
   xmlns:svg="http://www.w3.org/2000/svg"
   xmlns="http://www.w3.org/2000/svg"
   xmlns:xlink="http://www.w3.org/1999/xlink"
   xmlns:sodipodi="http://sodipodi.sourceforge.net/DTD/sodipodi-0.dtd"
   xmlns:inkscape="http://www.inkscape.org/namespaces/inkscape"
   version="1.0"
   width="96"
   height="96"
   id="svg2408"
   inkscape:version="0.47 r22583"
   sodipodi:docname="totem.svg"
   inkscape:export-filename="/home/seba/Dropbox/Faenza/totem.png"
   inkscape:export-xdpi="45"
   inkscape:export-ydpi="45">
  <metadata
     id="metadata3522">
    <rdf:RDF>
      <cc:Work
         rdf:about="">
        <dc:format>image/svg+xml</dc:format>
        <dc:type
           rdf:resource="http://purl.org/dc/dcmitype/StillImage" />
        <dc:title></dc:title>
      </cc:Work>
    </rdf:RDF>
  </metadata>
  <sodipodi:namedview
     pagecolor="#ffffff"
     bordercolor="#666666"
     borderopacity="1"
     objecttolerance="10"
     gridtolerance="10"
     guidetolerance="10"
     inkscape:pageopacity="0"
     inkscape:pageshadow="2"
     inkscape:window-width="640"
     inkscape:window-height="480"
     id="namedview3520"
     showgrid="false"
     inkscape:zoom="4.9583333"
     inkscape:cx="30.735645"
     inkscape:cy="39.932773"
     inkscape:current-layer="svg2408" />
  <defs
     id="defs2410">
    <linearGradient
       id="linearGradient3921">
      <stop
         id="stop3923"
         style="stop-color:#152b6b;stop-opacity:1;"
         offset="0" />
      <stop
         id="stop3925"
         style="stop-color:#152b6b;stop-opacity:0;"
         offset="1" />
    </linearGradient>
    <linearGradient
       id="linearGradient3806">
      <stop
         id="stop3808"
         style="stop-color:#c0cbf7;stop-opacity:1;"
         offset="0" />
      <stop
         id="stop3810"
         style="stop-color:#3555b6;stop-opacity:1;"
         offset="1" />
    </linearGradient>
    <linearGradient
       x1="45.447727"
       y1="92.539597"
       x2="45.447727"
       y2="7.0165396"
       id="ButtonShadow"
       gradientUnits="userSpaceOnUse"
       gradientTransform="scale(1.0058652,0.994169)">
      <stop
         id="stop3750"
         style="stop-color:#000000;stop-opacity:1"
         offset="0" />
      <stop
         id="stop3752"
         style="stop-color:#000000;stop-opacity:0.58823532"
         offset="1" />
    </linearGradient>
    <linearGradient
       id="linearGradient3737">
      <stop
         id="stop3739"
         style="stop-color:#ffffff;stop-opacity:1"
         offset="0" />
      <stop
         id="stop3741"
         style="stop-color:#ffffff;stop-opacity:0"
         offset="1" />
    </linearGradient>
    <filter
       color-interpolation-filters="sRGB"
       id="filter3174">
      <feGaussianBlur
         id="feGaussianBlur3176"
         stdDeviation="1.71" />
    </filter>
    <linearGradient
       x1="36.357143"
       y1="6"
       x2="36.357143"
       y2="63.893143"
       id="linearGradient3188"
       xlink:href="#linearGradient3737"
       gradientUnits="userSpaceOnUse" />
    <filter
       x="-0.192"
       y="-0.192"
       width="1.3839999"
       height="1.3839999"
       color-interpolation-filters="sRGB"
       id="filter3794">
      <feGaussianBlur
         id="feGaussianBlur3796"
         stdDeviation="5.28" />
    </filter>
    <linearGradient
       x1="48"
       y1="20.220806"
       x2="48"
       y2="138.66119"
       id="linearGradient3613"
       xlink:href="#linearGradient3737"
       gradientUnits="userSpaceOnUse" />
    <radialGradient
       cx="48"
       cy="90.171875"
       r="42"
       fx="48"
       fy="90.171875"
       id="radialGradient3619"
       xlink:href="#linearGradient3737"
       gradientUnits="userSpaceOnUse"
       gradientTransform="matrix(1.1573129,0,0,0.99590774,-7.5510206,0.19713193)" />
    <clipPath
       id="clipPath3613">
      <rect
         width="84"
         height="84"
         rx="6"
         ry="6"
         x="6"
         y="6"
         id="rect3615"
         style="fill:#ffffff;fill-opacity:1;fill-rule:nonzero;stroke:none" />
    </clipPath>
    <linearGradient
       x1="45.447727"
       y1="92.539597"
       x2="45.447727"
       y2="7.0165396"
       id="ButtonShadow-0"
       gradientUnits="userSpaceOnUse"
       gradientTransform="matrix(1.0058652,0,0,0.994169,100,0)">
      <stop
         id="stop3750-8"
         style="stop-color:#000000;stop-opacity:1"
         offset="0" />
      <stop
         id="stop3752-5"
         style="stop-color:#000000;stop-opacity:0.58823532"
         offset="1" />
    </linearGradient>
    <linearGradient
       x1="32.251034"
       y1="6.1317081"
       x2="32.251034"
       y2="90.238609"
       id="linearGradient3725"
       xlink:href="#ButtonShadow-0"
       gradientUnits="userSpaceOnUse"
       gradientTransform="matrix(1.0238095,0,0,-1.0119048,-1.1428571,98.071429)" />
    <linearGradient
       x1="32.251034"
       y1="6.1317081"
       x2="32.251034"
       y2="90.238609"
       id="linearGradient3721"
       xlink:href="#ButtonShadow-0"
       gradientUnits="userSpaceOnUse"
       gradientTransform="matrix(1,0,0,-1,0,97)" />
    <linearGradient
       x1="58.650177"
       y1="122"
       x2="58.650177"
       y2="5.4252338"
       id="ButtonColor"
       gradientUnits="userSpaceOnUse"
       gradientTransform="matrix(1.0172414,0,0,1.0172414,-1.1034483,-1.1034483)">
      <stop
         id="stop3189"
         style="stop-color:#000000;stop-opacity:1"
         offset="0" />
      <stop
         id="stop3191"
         style="stop-color:#515151;stop-opacity:1"
         offset="1" />
    </linearGradient>
    <linearGradient
       x1="32.251034"
       y1="6.1317081"
       x2="32.251034"
       y2="90.238609"
       id="linearGradient3702"
       xlink:href="#ButtonShadow-0"
       gradientUnits="userSpaceOnUse"
       gradientTransform="matrix(1.0238095,0,0,-1.0119048,-1.1428571,98.071429)" />
    <linearGradient
       x1="32.251034"
       y1="6.1317081"
       x2="32.251034"
       y2="90.238609"
       id="linearGradient3711"
       xlink:href="#ButtonShadow-0"
       gradientUnits="userSpaceOnUse"
       gradientTransform="matrix(1.0238095,0,0,-1.0119048,-1.1428571,98.071429)" />
    <linearGradient
       x1="32.251034"
       y1="6.1317081"
       x2="32.251034"
       y2="90.238609"
       id="linearGradient3719"
       xlink:href="#ButtonShadow-0"
       gradientUnits="userSpaceOnUse"
       gradientTransform="matrix(1.0238095,0,0,-1.0119048,-1.1428571,98.071429)" />
    <radialGradient
       cx="48"
       cy="48"
       r="28"
       fx="48"
       fy="48"
       id="radialGradient3804"
       xlink:href="#linearGradient3806"
       gradientUnits="userSpaceOnUse"
       gradientTransform="matrix(1.1428571,0,0,0.85714286,-6.8571431,3.8571432)" />
    <radialGradient
       cx="48"
       cy="48"
       r="28"
       fx="48"
       fy="48"
       id="radialGradient3832"
       xlink:href="#linearGradient3806"
       gradientUnits="userSpaceOnUse"
       gradientTransform="matrix(1.1428571,0,0,-0.85714286,-6.8571431,38.142857)" />
    <radialGradient
       cx="48"
       cy="48"
       r="28"
       fx="48"
       fy="48"
       id="radialGradient3834"
       xlink:href="#linearGradient3806"
       gradientUnits="userSpaceOnUse"
       gradientTransform="matrix(1.1428571,0,0,0.85714286,-6.8571431,57.857143)" />
    <linearGradient
       x1="48.495441"
       y1="90.434654"
       x2="48.495441"
       y2="52.387913"
       id="linearGradient3968"
       xlink:href="#linearGradient3921"
       gradientUnits="userSpaceOnUse" />
    <clipPath
       id="clipPath3972">
      <path
         d="m 22,24 c -1.108,0 -2,0.93035 -2,2.09375 L 20,36 76,36 76,26.09375 C 76,24.93035 75.108,24 74,24 l -52,0 z"
         id="path3974"
         style="fill:#ff0000;fill-opacity:1;stroke:none" />
    </clipPath>
    <clipPath
       id="clipPath4000">
      <path
         d="m 22,72 c -1.108,0 -2,-0.93035 -2,-2.09375 L 20,60 l 56,0 0,9.90625 C 76,71.06965 75.108,72 74,72 l -52,0 z"
         id="path4002"
         style="fill:#ff0000;fill-opacity:1;stroke:none" />
    </clipPath>
    <linearGradient
       inkscape:collect="always"
       xlink:href="#ButtonColor"
       id="linearGradient3531"
       gradientUnits="userSpaceOnUse"
       x1="48"
       y1="90"
       x2="48"
       y2="5.9877172" />
    <linearGradient
       inkscape:collect="always"
       xlink:href="#linearGradient4235"
       id="linearGradient5666"
       gradientUnits="userSpaceOnUse"
       x1="6.8120542"
       y1="49.027908"
       x2="88.142281"
       y2="49.027908"
       gradientTransform="matrix(-0.69554141,-0.6955414,-0.6955414,0.69554141,113.15452,42.952647)" />
    <linearGradient
       id="linearGradient4235">
      <stop
         id="stop4237"
         style="stop-color:#ffffff;stop-opacity:0"
         offset="0" />
      <stop
         id="stop4245"
         style="stop-color:#ffffff;stop-opacity:0"
         offset="0.25" />
      <stop
         id="stop4243"
         style="stop-color:#ffffff;stop-opacity:0.70161289"
         offset="0.5" />
      <stop
         id="stop4247"
         style="stop-color:#ffffff;stop-opacity:0"
         offset="0.75" />
      <stop
         id="stop4239"
         style="stop-color:#ffffff;stop-opacity:0"
         offset="1" />
    </linearGradient>
    <linearGradient
       inkscape:collect="always"
       xlink:href="#linearGradient4235"
       id="linearGradient5669"
       gradientUnits="userSpaceOnUse"
       x1="6.8120542"
       y1="49.027908"
       x2="88.142281"
       y2="49.027908"
       gradientTransform="matrix(0.69554141,-0.6955414,0.6955414,0.69554141,-21.092027,42.952647)" />
    <clipPath
       id="clipPath4592">
      <path
         d="M 12,6 C 8.676,6 6,8.676 6,12 l 0,72 c 0,3.324 2.676,6 6,6 l 72,0 c 3.324,0 6,-2.676 6,-6 L 90,12 C 90,8.676 87.324,6 84,6 L 12,6 z m 36,4 C 68.98682,10 86,27.01318 86,48 86,68.98682 68.98682,86 48,86 27.01318,86 10,68.98682 10,48 10,27.01318 27.01318,10 48,10 z"
         id="path4594"
         style="fill:#ff00ff;fill-opacity:1;fill-rule:nonzero;stroke:none;display:inline" />
    </clipPath>
    <filter
       x="-0.12"
       y="-0.12"
       width="1.24"
       height="1.24"
       color-interpolation-filters="sRGB"
       id="filter4662">
      <feGaussianBlur
         id="feGaussianBlur4664"
         stdDeviation="4.2" />
    </filter>
    <linearGradient
       gradientTransform="translate(-1.96875,-3.96875)"
       inkscape:collect="always"
       xlink:href="#linearGradient3700"
       id="linearGradient5679"
       gradientUnits="userSpaceOnUse"
       x1="48"
       y1="7.4089875"
       x2="48.252537"
       y2="63.184418" />
    <linearGradient
       id="linearGradient3700">
      <stop
         id="stop3702"
         style="stop-color:#ffffff;stop-opacity:0"
         offset="0" />
      <stop
         id="stop3704"
         style="stop-color:#ffffff;stop-opacity:0.23387097"
         offset="1" />
    </linearGradient>
    <radialGradient
       inkscape:collect="always"
       xlink:href="#linearGradient3737-9"
       id="radialGradient5682"
       gradientUnits="userSpaceOnUse"
       gradientTransform="matrix(1.1573129,0,0,0.99590774,-9.5197706,-3.7716181)"
       cx="48"
       cy="90.171875"
       fx="48"
       fy="90.171875"
       r="42" />
    <linearGradient
       id="linearGradient3737-9">
      <stop
         id="stop3739-1"
         style="stop-color:#ffffff;stop-opacity:1"
         offset="0" />
      <stop
         id="stop3741-2"
         style="stop-color:#ffffff;stop-opacity:0"
         offset="1" />
    </linearGradient>
    <linearGradient
       gradientTransform="translate(-1.96875,-3.96875)"
       inkscape:collect="always"
       xlink:href="#linearGradient3737-9"
       id="linearGradient5685"
       gradientUnits="userSpaceOnUse"
       x1="36.357143"
       y1="6"
       x2="36.357143"
       y2="63.893143" />
    <clipPath
       id="clipPath4187">
      <path
         d="m 48,102 c -19.88225,0 -36,16.11775 -36,36 0,19.88225 16.11775,36 36,36 19.88225,0 36,-16.11775 36,-36 0,-19.88225 -16.11775,-36 -36,-36 z m 0,24 c 6.62742,0 12,5.37258 12,12 0,6.62742 -5.37258,12 -12,12 -6.62742,0 -12,-5.37258 -12,-12 0,-6.62742 5.37258,-12 12,-12 z"
         id="path4189"
         style="fill:#bbb1bf;fill-opacity:1;stroke:none" />
    </clipPath>
    <filter
       x="-0.18000001"
       y="-0.18000001"
       width="1.36"
       height="1.36"
       color-interpolation-filters="sRGB"
       id="filter4195">
      <feGaussianBlur
         id="feGaussianBlur4197"
         stdDeviation="5.2159999" />
    </filter>
    <clipPath
       id="clipPath4031">
      <path
         d="M 48,32 C 28.117749,32 12,48.117749 12,68 12,87.882251 28.117749,104 48,104 67.882251,104 84,87.882251 84,68 84,48.117749 67.882251,32 48,32 z m 0,24 c 6.627417,0 12,5.372583 12,12 0,6.627417 -5.372583,12 -12,12 -6.627417,0 -12,-5.372583 -12,-12 0,-6.627417 5.372583,-12 12,-12 z"
         id="path4033"
         style="fill:#bbb1bf;fill-opacity:1;stroke:none" />
    </clipPath>
    <filter
       x="-0.19037074"
       y="-0.1707008"
       width="1.3807415"
       height="1.3414016"
       color-interpolation-filters="sRGB"
       id="filter4035">
      <feGaussianBlur
         id="feGaussianBlur4037"
         stdDeviation="4.9476562" />
    </filter>
    <radialGradient
       inkscape:collect="always"
       xlink:href="#linearGradient3342"
       id="radialGradient5704"
       gradientUnits="userSpaceOnUse"
       gradientTransform="matrix(0,0.2906454,-0.2924332,0,64.139376,26.623443)"
       cx="59.893993"
       cy="61.92226"
       fx="59.893993"
       fy="61.92226"
       r="33.71384" />
    <linearGradient
       id="linearGradient3342">
      <stop
         id="stop3344"
         style="stop-color:#000000;stop-opacity:0"
         offset="0" />
      <stop
         id="stop3350"
         style="stop-color:#000000;stop-opacity:0"
         offset="0.85000002" />
      <stop
         id="stop3346"
         style="stop-color:#000000;stop-opacity:1"
         offset="1" />
    </linearGradient>
    <linearGradient
       inkscape:collect="always"
       xlink:href="#linearGradient3330"
       id="linearGradient5706"
       gradientUnits="userSpaceOnUse"
       x1="26.180153"
       y1="61.92226"
       x2="93.607834"
       y2="61.92226"
       gradientTransform="matrix(0,0.2906454,-0.34915584,0,67.651769,26.623443)" />
    <linearGradient
       id="linearGradient3330">
      <stop
         id="stop3332"
         style="stop-color:#ffffff;stop-opacity:0.203125"
         offset="0" />
      <stop
         id="stop3334"
         style="stop-color:#ffffff;stop-opacity:0.6796875"
         offset="1" />
    </linearGradient>
    <linearGradient
       inkscape:collect="always"
       xlink:href="#linearGradient3362"
       id="linearGradient5709"
       gradientUnits="userSpaceOnUse"
       x1="25.220379"
       y1="61.92226"
       x2="94.567612"
       y2="61.92226"
       gradientTransform="matrix(0,0.16827027,-0.20214285,0,58.548393,33.952871)" />
    <linearGradient
       id="linearGradient3362">
      <stop
         id="stop3364"
         style="stop-color:#4d4d4d;stop-opacity:1"
         offset="0" />
      <stop
         id="stop3366"
         style="stop-color:#ffffff;stop-opacity:1"
         offset="1" />
    </linearGradient>
    <clipPath
       id="clipPath3721">
      <path
         d="m 76.013977,47.51268 a 28.284271,28.284271 0 1 1 -56.568542,0 28.284271,28.284271 0 1 1 56.568542,0 z"
         transform="matrix(1.3435029,0,0,1.3435029,-16.124998,74.166578)"
         id="path3723"
         style="fill:#ff0000;fill-opacity:1;stroke:none" />
    </clipPath>
    <filter
       color-interpolation-filters="sRGB"
       id="filter3751">
      <feGaussianBlur
         id="feGaussianBlur3753"
         stdDeviation="1.44" />
    </filter>
    <radialGradient
       inkscape:collect="always"
       xlink:href="#linearGradient4640"
       id="radialGradient6064"
       gradientUnits="userSpaceOnUse"
       cx="46.467018"
       cy="47.765217"
       fx="46.467018"
       fy="47.765217"
       r="35.860416"
       gradientTransform="matrix(1.0596642,0,0,1.0596642,-81.911705,3.1454133)" />
    <linearGradient
       id="linearGradient4640">
      <stop
         id="stop4642"
         style="stop-color:#000000;stop-opacity:0"
         offset="0" />
      <stop
         id="stop4648"
         style="stop-color:#000000;stop-opacity:0"
         offset="0.93000001" />
      <stop
         id="stop4644"
         style="stop-color:#000000;stop-opacity:1"
         offset="1" />
    </linearGradient>
    <linearGradient
       gradientTransform="translate(-80.672269,5.7605042)"
       inkscape:collect="always"
       xlink:href="#linearGradient4578"
       id="linearGradient6068"
       gradientUnits="userSpaceOnUse"
       x1="47.921329"
       y1="89.668793"
       x2="47.921329"
       y2="4.7880402" />
    <linearGradient
       id="linearGradient4578">
      <stop
         id="stop4580"
         style="stop-color:#a0a0a0;stop-opacity:0.5411765"
         offset="0" />
      <stop
         id="stop4582"
         style="stop-color:#a0a0a0;stop-opacity:0.34509805"
         offset="1" />
    </linearGradient>
    <linearGradient
       x1="32.251034"
       y1="6.1317081"
       x2="32.251034"
       y2="90.238609"
       id="linearGradient3263"
       xlink:href="#ButtonShadow-0-6"
       gradientUnits="userSpaceOnUse"
       gradientTransform="matrix(1.0238095,0,0,-1.0119048,-1.1428571,98.071429)" />
    <linearGradient
       x1="45.447727"
       y1="92.539597"
       x2="45.447727"
       y2="7.0165396"
       id="ButtonShadow-0-6"
       gradientUnits="userSpaceOnUse"
       gradientTransform="matrix(1.0058652,0,0,0.994169,100,0)">
      <stop
         id="stop3750-8-8"
         style="stop-color:#000000;stop-opacity:1"
         offset="0" />
      <stop
         id="stop3752-5-2"
         style="stop-color:#000000;stop-opacity:0.58823532"
         offset="1" />
    </linearGradient>
    <linearGradient
       x1="32.251034"
       y1="6.1317081"
       x2="32.251034"
       y2="90.238609"
       id="linearGradient3780"
       xlink:href="#ButtonShadow-0-6"
       gradientUnits="userSpaceOnUse"
       gradientTransform="matrix(1.0238095,0,0,-1.0119048,-1.1428571,98.071429)" />
    <linearGradient
       x1="32.251034"
       y1="6.1317081"
       x2="32.251034"
       y2="90.238609"
       id="linearGradient3772"
       xlink:href="#ButtonShadow-0-6"
       gradientUnits="userSpaceOnUse"
       gradientTransform="matrix(1.0238095,0,0,-1.0119048,-1.1428571,98.071429)" />
    <linearGradient
       x1="32.251034"
       y1="6.1317081"
       x2="32.251034"
       y2="90.238609"
       id="linearGradient3725-1"
       xlink:href="#ButtonShadow-0-6"
       gradientUnits="userSpaceOnUse"
       gradientTransform="matrix(1.0238095,0,0,-1.0119048,-1.1428571,98.071429)" />
    <linearGradient
       y2="90.238609"
       x2="32.251034"
       y1="6.1317081"
       x1="32.251034"
       gradientTransform="matrix(1,0,0,-1,0,97)"
       gradientUnits="userSpaceOnUse"
       id="linearGradient6220"
       xlink:href="#ButtonShadow-0-6"
       inkscape:collect="always" />
    <linearGradient
       inkscape:collect="always"
       xlink:href="#linearGradient3362"
       id="linearGradient6465"
       gradientUnits="userSpaceOnUse"
       gradientTransform="matrix(0,0.16827027,-0.20214285,0,-20.155126,43.682125)"
       x1="25.220379"
       y1="61.92226"
       x2="94.567612"
       y2="61.92226" />
    <radialGradient
       inkscape:collect="always"
       xlink:href="#linearGradient3342"
       id="radialGradient6467"
       gradientUnits="userSpaceOnUse"
       gradientTransform="matrix(0,0.2906454,-0.2924332,0,-14.564143,36.352697)"
       cx="59.893993"
       cy="61.92226"
       fx="59.893993"
       fy="61.92226"
       r="33.71384" />
    <linearGradient
       inkscape:collect="always"
       xlink:href="#linearGradient3330"
       id="linearGradient6469"
       gradientUnits="userSpaceOnUse"
       gradientTransform="matrix(0,0.2906454,-0.34915584,0,-11.05175,36.352697)"
       x1="26.180153"
       y1="61.92226"
       x2="93.607834"
       y2="61.92226" />
    <linearGradient
       inkscape:collect="always"
       xlink:href="#linearGradient3737-9"
       id="linearGradient6471"
       gradientUnits="userSpaceOnUse"
       gradientTransform="translate(-80.672269,5.7605042)"
       x1="36.357143"
       y1="6"
       x2="36.357143"
       y2="63.893143" />
    <radialGradient
       inkscape:collect="always"
       xlink:href="#linearGradient3737-9"
       id="radialGradient6473"
       gradientUnits="userSpaceOnUse"
       gradientTransform="matrix(1.1573129,0,0,0.99590774,-88.22329,5.9576361)"
       cx="48"
       cy="90.171875"
       fx="48"
       fy="90.171875"
       r="42" />
    <linearGradient
       inkscape:collect="always"
       xlink:href="#linearGradient3700"
       id="linearGradient6475"
       gradientUnits="userSpaceOnUse"
       gradientTransform="translate(-80.672269,5.7605042)"
       x1="48"
       y1="7.4089875"
       x2="48.252537"
       y2="63.184418" />
    <linearGradient
       inkscape:collect="always"
       xlink:href="#linearGradient4235"
       id="linearGradient6477"
       gradientUnits="userSpaceOnUse"
       gradientTransform="matrix(0.69554141,-0.6955414,0.6955414,0.69554141,-99.795546,52.681901)"
       x1="6.8120542"
       y1="49.027908"
       x2="88.142281"
       y2="49.027908" />
    <linearGradient
       inkscape:collect="always"
       xlink:href="#linearGradient4235"
       id="linearGradient6479"
       gradientUnits="userSpaceOnUse"
       gradientTransform="matrix(-0.69554141,-0.6955414,-0.6955414,0.69554141,34.451001,52.681901)"
       x1="6.8120542"
       y1="49.027908"
       x2="88.142281"
       y2="49.027908" />
    <linearGradient
       inkscape:collect="always"
       xlink:href="#ButtonShadow-0-6"
       id="linearGradient6481"
       gradientUnits="userSpaceOnUse"
       gradientTransform="matrix(1.0238095,0,0,-1.0119048,-1.1428571,98.071429)"
       x1="32.251034"
       y1="6.1317081"
       x2="32.251034"
       y2="90.238609" />
    <linearGradient
       inkscape:collect="always"
       xlink:href="#ButtonShadow-0-6"
       id="linearGradient6483"
       gradientUnits="userSpaceOnUse"
       gradientTransform="matrix(1.0238095,0,0,-1.0119048,-1.1428571,98.071429)"
       x1="32.251034"
       y1="6.1317081"
       x2="32.251034"
       y2="90.238609" />
    <linearGradient
       inkscape:collect="always"
       xlink:href="#ButtonShadow-0-6"
       id="linearGradient6485"
       gradientUnits="userSpaceOnUse"
       gradientTransform="matrix(1.0238095,0,0,-1.0119048,-1.1428571,98.071429)"
       x1="32.251034"
       y1="6.1317081"
       x2="32.251034"
       y2="90.238609" />
    <linearGradient
       inkscape:collect="always"
       xlink:href="#ButtonShadow-0-6"
       id="linearGradient6522"
       gradientUnits="userSpaceOnUse"
       gradientTransform="matrix(1.0238095,0,0,-1.0119048,-1.1428571,98.071429)"
       x1="32.251034"
       y1="6.1317081"
       x2="32.251034"
       y2="90.238609" />
    <linearGradient
       inkscape:collect="always"
       xlink:href="#ButtonShadow-0-6"
       id="linearGradient6524"
       gradientUnits="userSpaceOnUse"
       gradientTransform="matrix(1.0238095,0,0,-1.0119048,-1.1428571,98.071429)"
       x1="32.251034"
       y1="6.1317081"
       x2="32.251034"
       y2="90.238609" />
    <linearGradient
       inkscape:collect="always"
       xlink:href="#ButtonShadow-0-6"
       id="linearGradient6526"
       gradientUnits="userSpaceOnUse"
       gradientTransform="matrix(1.0238095,0,0,-1.0119048,-1.1428571,98.071429)"
       x1="32.251034"
       y1="6.1317081"
       x2="32.251034"
       y2="90.238609" />
    <linearGradient
       inkscape:collect="always"
       xlink:href="#ButtonShadow-0-6"
       id="linearGradient6528"
       gradientUnits="userSpaceOnUse"
       gradientTransform="matrix(1.0238095,0,0,-1.0119048,-1.1428571,98.071429)"
       x1="32.251034"
       y1="6.1317081"
       x2="32.251034"
       y2="90.238609" />
    <linearGradient
       inkscape:collect="always"
       xlink:href="#ButtonShadow-0-6"
       id="linearGradient6530"
       gradientUnits="userSpaceOnUse"
       gradientTransform="matrix(1,0,0,-1,0,97)"
       x1="32.251034"
       y1="6.1317081"
       x2="32.251034"
       y2="90.238609" />
    <linearGradient
       inkscape:collect="always"
       xlink:href="#linearGradient4578"
       id="linearGradient6532"
       gradientUnits="userSpaceOnUse"
       gradientTransform="translate(-80.672269,5.7605042)"
       x1="47.921329"
       y1="89.668793"
       x2="47.921329"
       y2="4.7880402" />
    <radialGradient
       inkscape:collect="always"
       xlink:href="#linearGradient4640"
       id="radialGradient6534"
       gradientUnits="userSpaceOnUse"
       gradientTransform="matrix(1.0596642,0,0,1.0596642,-81.911705,3.1454133)"
       cx="46.467018"
       cy="47.765217"
       fx="46.467018"
       fy="47.765217"
       r="35.860416" />
    <linearGradient
       inkscape:collect="always"
       xlink:href="#linearGradient3362"
       id="linearGradient6536"
       gradientUnits="userSpaceOnUse"
       gradientTransform="matrix(0,0.16827027,-0.20214285,0,-20.155126,43.682125)"
       x1="25.220379"
       y1="61.92226"
       x2="94.567612"
       y2="61.92226" />
    <radialGradient
       inkscape:collect="always"
       xlink:href="#linearGradient3342"
       id="radialGradient6538"
       gradientUnits="userSpaceOnUse"
       gradientTransform="matrix(0,0.2906454,-0.2924332,0,-14.564143,36.352697)"
       cx="59.893993"
       cy="61.92226"
       fx="59.893993"
       fy="61.92226"
       r="33.71384" />
    <linearGradient
       inkscape:collect="always"
       xlink:href="#linearGradient3330"
       id="linearGradient6540"
       gradientUnits="userSpaceOnUse"
       gradientTransform="matrix(0,0.2906454,-0.34915584,0,-11.05175,36.352697)"
       x1="26.180153"
       y1="61.92226"
       x2="93.607834"
       y2="61.92226" />
    <linearGradient
       inkscape:collect="always"
       xlink:href="#linearGradient3737-9"
       id="linearGradient6542"
       gradientUnits="userSpaceOnUse"
       gradientTransform="translate(-80.672269,5.7605042)"
       x1="36.357143"
       y1="6"
       x2="36.357143"
       y2="63.893143" />
    <radialGradient
       inkscape:collect="always"
       xlink:href="#linearGradient3737-9"
       id="radialGradient6544"
       gradientUnits="userSpaceOnUse"
       gradientTransform="matrix(1.1573129,0,0,0.99590774,-88.22329,5.9576361)"
       cx="48"
       cy="90.171875"
       fx="48"
       fy="90.171875"
       r="42" />
    <linearGradient
       inkscape:collect="always"
       xlink:href="#linearGradient3700"
       id="linearGradient6546"
       gradientUnits="userSpaceOnUse"
       gradientTransform="translate(-80.672269,5.7605042)"
       x1="48"
       y1="7.4089875"
       x2="48.252537"
       y2="63.184418" />
    <linearGradient
       inkscape:collect="always"
       xlink:href="#linearGradient4235"
       id="linearGradient6548"
       gradientUnits="userSpaceOnUse"
       gradientTransform="matrix(0.69554141,-0.6955414,0.6955414,0.69554141,-99.795546,52.681901)"
       x1="6.8120542"
       y1="49.027908"
       x2="88.142281"
       y2="49.027908" />
    <linearGradient
       inkscape:collect="always"
       xlink:href="#linearGradient4235"
       id="linearGradient6550"
       gradientUnits="userSpaceOnUse"
       gradientTransform="matrix(-0.69554141,-0.6955414,-0.6955414,0.69554141,34.451001,52.681901)"
       x1="6.8120542"
       y1="49.027908"
       x2="88.142281"
       y2="49.027908" />
  </defs>
  <g
     id="layer2"
     style="display:none">
    <path
       d="M 11,7 C 7.676,7 5,9.676 5,13 l 0,73 c 0,3.324 2.676,6 6,6 l 74,0 c 3.324,0 6,-2.676 6,-6 L 91,13 C 91,9.676 88.324,7 85,7 L 11,7 z m -1,4 6,0 0,4 -6,0 0,-4 z m 70,0 6,0 0,4 -6,0 0,-4 z m -70,8 6,0 0,4 -6,0 0,-4 z m 70,0 6,0 0,4 -6,0 0,-4 z m -70,8 6,0 0,4 -6,0 0,-4 z m 70,0 6,0 0,4 -6,0 0,-4 z m -70,8 6,0 0,4 -6,0 0,-4 z m 70,0 6,0 0,4 -6,0 0,-4 z m -70,8 6,0 0,4 -6,0 0,-4 z m 70,0 6,0 0,4 -6,0 0,-4 z m -70,8 6,0 0,4 -6,0 0,-4 z m 70,0 6,0 0,4 -6,0 0,-4 z m -70,8 6,0 0,4 -6,0 0,-4 z m 70,0 6,0 0,4 -6,0 0,-4 z m -70,8 6,0 0,4 -6,0 0,-4 z m 70,0 6,0 0,4 -6,0 0,-4 z m -70,8 6,0 0,4 -6,0 0,-4 z m 70,0 6,0 0,4 -6,0 0,-4 z m -70,8 6,0 0,4 -6,0 0,-4 z m 70,0 6,0 0,4 -6,0 0,-4 z"
       id="rect3745"
       style="opacity:0.9;fill:url(#ButtonShadow);fill-opacity:1;fill-rule:nonzero;stroke:none;filter:url(#filter3174)" />
  </g>
  <g
     id="layer3"
     style="display:inline">
    <path
       d="M 12,4 C 6.4912778,4 2,8.4912778 2,14 l 0,71 c 0,5.508722 4.4912778,10 10,10 l 72,0 c 5.508722,0 10,-4.491278 10,-10 L 94,14 C 94,8.4912778 89.508722,4 84,4 L 12,4 z"
       id="path3717"
       style="opacity:0.07999998;fill:url(#linearGradient3719);fill-opacity:1;fill-rule:nonzero;stroke:none;display:inline" />
    <path
       d="M 12,5.03125 C 7.053585,5.03125 3.03125,9.053585 3.03125,14 l 0,71 c 0,4.946415 4.022335,8.96875 8.96875,8.96875 l 72,0 c 4.946415,0 8.96875,-4.022335 8.96875,-8.96875 l 0,-71 C 92.96875,9.053585 88.946415,5.03125 84,5.03125 l -72,0 z m -0.03125,7.9375 2.0625,0 0,0.0625 -2.0625,0 0,-0.0625 z m 70,0 2.0625,0 0,0.0625 -2.0625,0 0,-0.0625 z m -70,8 2.0625,0 0,0.0625 -2.0625,0 0,-0.0625 z m 70,0 2.0625,0 0,0.0625 -2.0625,0 0,-0.0625 z m -70,8 2.0625,0 0,0.0625 -2.0625,0 0,-0.0625 z m 70,0 2.0625,0 0,0.0625 -2.0625,0 0,-0.0625 z m -70,8 2.0625,0 0,0.0625 -2.0625,0 0,-0.0625 z m 70,0 2.0625,0 0,0.0625 -2.0625,0 0,-0.0625 z m -70,8 2.0625,0 0,0.0625 -2.0625,0 0,-0.0625 z m 70,0 2.0625,0 0,0.0625 -2.0625,0 0,-0.0625 z m -70,8 2.0625,0 0,0.0625 -2.0625,0 0,-0.0625 z m 70,0 2.0625,0 0,0.0625 -2.0625,0 0,-0.0625 z m -70,8 2.0625,0 0,0.0625 -2.0625,0 0,-0.0625 z m 70,0 2.0625,0 0,0.0625 -2.0625,0 0,-0.0625 z m -70,8 2.0625,0 0,0.0625 -2.0625,0 0,-0.0625 z m 70,0 2.0625,0 0,0.0625 -2.0625,0 0,-0.0625 z m -70,8 2.0625,0 0,0.0625 -2.0625,0 0,-0.0625 z m 70,0 2.0625,0 0,0.0625 -2.0625,0 0,-0.0625 z m -70,8 2.0625,0 0,0.0625 -2.0625,0 0,-0.0625 z m 70,0 2.0625,0 0,0.0625 -2.0625,0 0,-0.0625 z"
       id="path3709"
       style="opacity:0.1;fill:url(#linearGradient3711);fill-opacity:1;fill-rule:nonzero;stroke:none;display:inline" />
    <path
       d="M 12,6 C 7.5798064,6 4,9.5798064 4,14 l 0,71 c 0,4.420194 3.5798064,8 8,8 l 72,0 c 4.420194,0 8,-3.579806 8,-8 L 92,14 C 92,9.5798064 88.420194,6 84,6 L 12,6 z m -1,6 4,0 0,2 -4,0 0,-2 z m 70,0 4,0 0,2 -4,0 0,-2 z m -70,8 4,0 0,2 -4,0 0,-2 z m 70,0 4,0 0,2 -4,0 0,-2 z m -70,8 4,0 0,2 -4,0 0,-2 z m 70,0 4,0 0,2 -4,0 0,-2 z m -70,8 4,0 0,2 -4,0 0,-2 z m 70,0 4,0 0,2 -4,0 0,-2 z m -70,8 4,0 0,2 -4,0 0,-2 z m 70,0 4,0 0,2 -4,0 0,-2 z m -70,8 4,0 0,2 -4,0 0,-2 z m 70,0 4,0 0,2 -4,0 0,-2 z m -70,8 4,0 0,2 -4,0 0,-2 z m 70,0 4,0 0,2 -4,0 0,-2 z m -70,8 4,0 0,2 -4,0 0,-2 z m 70,0 4,0 0,2 -4,0 0,-2 z m -70,8 4,0 0,2 -4,0 0,-2 z m 70,0 4,0 0,2 -4,0 0,-2 z m -70,8 4,0 0,2 -4,0 0,-2 z m 70,0 4,0 0,2 -4,0 0,-2 z"
       id="path3700"
       style="opacity:0.2;fill:url(#linearGradient3702);fill-opacity:1;fill-rule:nonzero;stroke:none;display:inline" />
    <path
       d="M 12,7 C 8.122,7 5,10.122 5,14 l 0,71 c 0,3.878 3.122,7 7,7 l 72,0 c 3.878,0 7,-3.122 7,-7 L 91,14 C 91,10.122 87.878,7 84,7 L 12,7 z m -2,4 6,0 0,4 -6,0 0,-4 z m 70,0 6,0 0,4 -6,0 0,-4 z m -70,8 6,0 0,4 -6,0 0,-4 z m 70,0 6,0 0,4 -6,0 0,-4 z m -70,8 6,0 0,4 -6,0 0,-4 z m 70,0 6,0 0,4 -6,0 0,-4 z m -70,8 6,0 0,4 -6,0 0,-4 z m 70,0 6,0 0,4 -6,0 0,-4 z m -70,8 6,0 0,4 -6,0 0,-4 z m 70,0 6,0 0,4 -6,0 0,-4 z m -70,8 6,0 0,4 -6,0 0,-4 z m 70,0 6,0 0,4 -6,0 0,-4 z m -70,8 6,0 0,4 -6,0 0,-4 z m 70,0 6,0 0,4 -6,0 0,-4 z m -70,8 6,0 0,4 -6,0 0,-4 z m 70,0 6,0 0,4 -6,0 0,-4 z m -70,8 6,0 0,4 -6,0 0,-4 z m 70,0 6,0 0,4 -6,0 0,-4 z m -70,8 6,0 0,4 -6,0 0,-4 z m 70,0 6,0 0,4 -6,0 0,-4 z"
       id="rect3723"
       style="opacity:0.3;fill:url(#linearGradient3725);fill-opacity:1;fill-rule:nonzero;stroke:none;display:inline" />
    <path
       d="M 12,7 C 8.676,7 6,9.676 6,13 l 0,72 c 0,3.324 2.676,6 6,6 l 72,0 c 3.324,0 6,-2.676 6,-6 L 90,13 C 90,9.676 87.324,7 84,7 L 12,7 z m -2,4 6,0 0,4 -6,0 0,-4 z m 70,0 6,0 0,4 -6,0 0,-4 z m -70,8 6,0 0,4 -6,0 0,-4 z m 70,0 6,0 0,4 -6,0 0,-4 z m -70,8 6,0 0,4 -6,0 0,-4 z m 70,0 6,0 0,4 -6,0 0,-4 z m -70,8 6,0 0,4 -6,0 0,-4 z m 70,0 6,0 0,4 -6,0 0,-4 z m -70,8 6,0 0,4 -6,0 0,-4 z m 70,0 6,0 0,4 -6,0 0,-4 z m -70,8 6,0 0,4 -6,0 0,-4 z m 70,0 6,0 0,4 -6,0 0,-4 z m -70,8 6,0 0,4 -6,0 0,-4 z m 70,0 6,0 0,4 -6,0 0,-4 z m -70,8 6,0 0,4 -6,0 0,-4 z m 70,0 6,0 0,4 -6,0 0,-4 z m -70,8 6,0 0,4 -6,0 0,-4 z m 70,0 6,0 0,4 -6,0 0,-4 z m -70,8 6,0 0,4 -6,0 0,-4 z m 70,0 6,0 0,4 -6,0 0,-4 z"
       id="rect3716"
       style="opacity:0.45;fill:url(#linearGradient3721);fill-opacity:1;fill-rule:nonzero;stroke:none;display:inline" />
  </g>
  <path
     style="fill:url(#linearGradient3531);fill-opacity:1;fill-rule:nonzero;stroke:none"
     id="rect2419"
     d="M 12,6 C 8.676,6 6,8.676 6,12 l 0,72 c 0,3.324 2.676,6 6,6 l 72,0 c 3.324,0 6,-2.676 6,-6 L 90,12 C 90,8.676 87.324,6 84,6 L 12,6 z m -2,4 6,0 0,4 -6,0 0,-4 z m 70,0 6,0 0,4 -6,0 0,-4 z m -70,8 6,0 0,4 -6,0 0,-4 z m 70,0 6,0 0,4 -6,0 0,-4 z m -70,8 6,0 0,4 -6,0 0,-4 z m 70,0 6,0 0,4 -6,0 0,-4 z m -70,8 6,0 0,4 -6,0 0,-4 z m 70,0 6,0 0,4 -6,0 0,-4 z m -70,8 6,0 0,4 -6,0 0,-4 z m 70,0 6,0 0,4 -6,0 0,-4 z m -70,8 6,0 0,4 -6,0 0,-4 z m 70,0 6,0 0,4 -6,0 0,-4 z m -70,8 6,0 0,4 -6,0 0,-4 z m 70,0 6,0 0,4 -6,0 0,-4 z m -70,8 6,0 0,4 -6,0 0,-4 z m 70,0 6,0 0,4 -6,0 0,-4 z m -70,8 6,0 0,4 -6,0 0,-4 z m 70,0 6,0 0,4 -6,0 0,-4 z m -70,8 6,0 0,4 -6,0 0,-4 z m 70,0 6,0 0,4 -6,0 0,-4 z" />
  <g
     id="layer4">
    <rect
       width="56"
       height="48"
       rx="2"
       ry="2.0999999"
       x="20"
       y="24"
       id="rect3796"
       style="fill:url(#radialGradient3804);fill-opacity:1;stroke:none" />
    <path
       d="m 22,78 c -1.108,0 -2,0.93035 -2,2.09375 L 20,90 76,90 76,80.09375 C 76,78.93035 75.108,78 74,78 l -52,0 z"
       id="rect3822"
       style="fill:url(#radialGradient3834);fill-opacity:1;stroke:none" />
    <path
       d="m 22,18 c -1.108,0 -2,-0.93035 -2,-2.09375 L 20,6 76,6 76,15.90625 C 76,17.06965 75.108,18 74,18 l -52,0 z"
       id="path3830"
       style="fill:url(#radialGradient3832);fill-opacity:1;stroke:none" />
    <path
       d="m 82.204286,73.387573 a 9.1021433,9.1021433 0 1 1 -18.204287,0 9.1021433,9.1021433 0 1 1 18.204287,0 z"
       transform="matrix(2.0874204,0,0,2.0874204,-104.59524,-105.19072)"
       id="path3355"
       style="fill:#223f91;fill-opacity:1;fill-rule:evenodd;stroke:none;display:inline" />
    <path
       d="m 82.204286,73.387573 a 9.1021433,9.1021433 0 1 1 -18.204287,0 9.1021433,9.1021433 0 1 1 18.204287,0 z"
       transform="matrix(1.867692,0,0,1.867692,-88.532286,-89.065384)"
       id="path3357"
       style="fill:#4665bc;fill-opacity:1;fill-rule:evenodd;stroke:none;display:inline" />
    <path
       d="m 82.204286,73.387573 a 9.1021433,9.1021433 0 1 1 -18.204287,0 9.1021433,9.1021433 0 1 1 18.204287,0 z"
       transform="matrix(1.6479635,0,0,1.6479635,-72.469995,-72.940043)"
       id="path3359"
       style="opacity:0.59999999999999998;fill:#aab5d5;fill-opacity:1;fill-rule:evenodd;stroke:none;display:inline" />
    <path
       d="M 64.5625,48.84375 A 0.14527817,0.14527817 0 0 0 64.53125,48.875 0.14527817,0.14527817 0 0 0 64.5,48.90625 0.14527817,0.14527817 0 0 0 64.46875,48.9375 0.14527817,0.14527817 0 0 0 64.4375,48.96875 0.14527817,0.14527817 0 0 0 64.4375,49 l 0,7.15625 0,7.125 a 0.14527817,0.14527817 0 0 0 0.03125,0.0625 0.14527817,0.14527817 0 0 0 0,0.03125 0.14527817,0.14527817 0 0 0 0.03125,0.03125 0.14527817,0.14527817 0 0 0 0.03125,0 0.14527817,0.14527817 0 0 0 0.0625,0.03125 0.14527817,0.14527817 0 0 0 0.03125,0 0.14527817,0.14527817 0 0 0 0.03125,-0.03125 L 65.5,62.9375 c 2.032547,-1.136687 4.850936,-2.76706 7.15625,-4.125 1.152657,-0.67897 2.167703,-1.300142 2.90625,-1.75 0.369274,-0.224929 0.668444,-0.39842 0.875,-0.53125 0.103278,-0.06641 0.192816,-0.115717 0.25,-0.15625 0.02859,-0.02027 0.04307,-0.0462 0.0625,-0.0625 0.0097,-0.0082 0.02015,-0.01907 0.03125,-0.03125 0.0056,-0.0061 0.02316,0.01299 0.03125,0 0.004,-0.0065 -2.27e-4,-0.03066 0,-0.03125 2.27e-4,-5.89e-4 0.03124,-0.06204 0.03125,-0.0625 0.0019,-0.100253 -0.04772,-0.162917 -0.09375,-0.25 -0.04603,-0.08708 -0.108762,-0.195997 -0.1875,-0.3125 -0.157477,-0.233006 -0.376177,-0.50341 -0.625,-0.8125 -0.497647,-0.61818 -1.121415,-1.307514 -1.625,-1.78125 -2.309707,-2.172806 -5.375663,-3.660811 -8.28125,-3.96875 -0.406537,-0.04308 -0.881133,-0.122141 -1.0625,-0.15625 L 64.625,48.84375 a 0.14527817,0.14527817 0 0 0 -0.03125,0 0.14527817,0.14527817 0 0 0 -0.03125,0 z"
       transform="matrix(0.93434497,0,0,0.98914915,-11.272209,-15.311874)"
       id="path3381"
       style="opacity:0.59999999999999998;fill:#e2e6f2;fill-opacity:1;fill-rule:nonzero;stroke:none;display:inline" />
    <path
       d="M 59.5,47.999999 C 59.5,54.347999 54.348,59.5 48,59.5 41.652,59.5 36.5,54.347999 36.5,47.999999 36.5,41.651999 41.652,36.5 48,36.5 c 6.348,0 11.5,5.151999 11.5,11.499999 z"
       id="path3361"
       style="opacity:0.5;fill:none;stroke:#2b1100;stroke-width:1;stroke-linecap:butt;stroke-linejoin:round;stroke-miterlimit:4;stroke-opacity:1;stroke-dasharray:none;stroke-dashoffset:0;display:inline" />
    <path
       d="m 48,24 0,48 1,0 0,-48 -1,0 z"
       id="path3363"
       style="opacity:0.5;fill:#2b1100;fill-opacity:1;fill-rule:evenodd;stroke:none;display:inline" />
    <path
       d="m 76,47 -56,0 0,1 56,0 0,-1 z"
       id="path3369"
       style="opacity:0.5;fill:#2b1100;fill-opacity:1;fill-rule:evenodd;stroke:none;display:inline" />
    <path
       d="M 60.93717,40.3125 47.62467,48 l 0.375,0.65625 13.359375,-7.710938 C 61.209248,40.741446 61.061257,40.531889 60.93717,40.3125 z"
       id="path3374"
       style="opacity:0.5;fill:#2b1100;fill-opacity:1;fill-rule:evenodd;stroke:none;display:inline" />
    <g
       transform="matrix(1.68563,0,0,1.68563,-33.043659,-39.962043)"
       id="text3865"
       style="font-size:12px;font-style:normal;font-variant:normal;font-weight:bold;font-stretch:normal;text-align:start;line-height:125%;writing-mode:lr-tb;text-anchor:start;fill:#20130b;fill-opacity:1;stroke:none;font-family:American Participants;-inkscape-font-specification:Abandoned Bitplane Bold">
      <path
         d="m 51.307151,54.001482 c -7e-6,0.936001 -0.308007,1.668001 -0.924,2.196 -0.584005,0.488 -1.352005,0.731999 -2.304,0.732 -0.936003,-10e-7 -1.696002,-0.244 -2.28,-0.732 -0.632001,-0.519999 -0.948001,-1.235999 -0.948,-2.148 -1e-6,-0.151998 0.008,-0.303997 0.024,-0.456 l 2.208,0 c -0.024,0.128003 -0.036,0.252002 -0.036,0.372 -3e-6,0.328002 0.092,0.592002 0.276,0.792 0.183997,0.200001 0.439997,0.300001 0.768,0.3 0.311996,10e-7 0.563996,-0.107999 0.756,-0.324 0.191995,-0.223998 0.287995,-0.491998 0.288,-0.804 -5e-6,-0.335997 -0.108005,-0.603997 -0.324,-0.804 -0.208004,-0.199997 -0.480004,-0.295997 -0.816,-0.288 l 0,-1.62 c 0.311996,0.008 0.571996,-0.07999 0.78,-0.264 0.215995,-0.183994 0.323995,-0.427994 0.324,-0.732 -5e-6,-0.295994 -0.096,-0.535993 -0.288,-0.72 -0.192004,-0.183993 -0.436004,-0.275993 -0.732,-0.276 -0.296003,7e-6 -0.536003,0.08801 -0.72,0.264 -0.176003,0.168007 -0.272003,0.396006 -0.288,0.684 l -2.028,0 c -1e-6,-0.839993 0.295999,-1.511992 0.888,-2.016 0.559998,-0.479991 1.267997,-0.719991 2.124,-0.72 0.839995,9e-6 1.547995,0.236009 2.124,0.708 0.623994,0.496008 0.935993,1.156007 0.936,1.98 -7e-6,0.832005 -0.304006,1.444005 -0.912,1.836 0.735993,0.408004 1.103993,1.088003 1.104,2.04"
         id="path3870"
         style="font-weight:normal;fill:#20130b;fill-opacity:1;-inkscape-font-specification:Abandoned Bitplane" />
    </g>
    <g
       transform="translate(0,54)"
       clip-path="url(#clipPath3972)"
       id="g3946">
      <path
         d="m 82.204286,73.387573 a 9.1021433,9.1021433 0 1 1 -18.204287,0 9.1021433,9.1021433 0 1 1 18.204287,0 z"
         transform="matrix(2.0874204,0,0,2.0874204,-104.59524,-105.19072)"
         id="path3948"
         style="fill:#223f91;fill-opacity:1;fill-rule:evenodd;stroke:none;display:inline" />
      <path
         d="m 82.204286,73.387573 a 9.1021433,9.1021433 0 1 1 -18.204287,0 9.1021433,9.1021433 0 1 1 18.204287,0 z"
         transform="matrix(1.867692,0,0,1.867692,-88.532286,-89.065384)"
         id="path3950"
         style="fill:#4665bc;fill-opacity:1;fill-rule:evenodd;stroke:none;display:inline" />
      <path
         d="m 82.204286,73.387573 a 9.1021433,9.1021433 0 1 1 -18.204287,0 9.1021433,9.1021433 0 1 1 18.204287,0 z"
         transform="matrix(1.6479635,0,0,1.6479635,-72.469995,-72.940043)"
         id="path3952"
         style="opacity:0.59999999999999998;fill:#aab5d5;fill-opacity:1;fill-rule:evenodd;stroke:none;display:inline" />
      <path
         d="M 64.5625,48.84375 A 0.14527817,0.14527817 0 0 0 64.53125,48.875 0.14527817,0.14527817 0 0 0 64.5,48.90625 0.14527817,0.14527817 0 0 0 64.46875,48.9375 0.14527817,0.14527817 0 0 0 64.4375,48.96875 0.14527817,0.14527817 0 0 0 64.4375,49 l 0,7.15625 0,7.125 a 0.14527817,0.14527817 0 0 0 0.03125,0.0625 0.14527817,0.14527817 0 0 0 0,0.03125 0.14527817,0.14527817 0 0 0 0.03125,0.03125 0.14527817,0.14527817 0 0 0 0.03125,0 0.14527817,0.14527817 0 0 0 0.0625,0.03125 0.14527817,0.14527817 0 0 0 0.03125,0 0.14527817,0.14527817 0 0 0 0.03125,-0.03125 L 65.5,62.9375 c 2.032547,-1.136687 4.850936,-2.76706 7.15625,-4.125 1.152657,-0.67897 2.167703,-1.300142 2.90625,-1.75 0.369274,-0.224929 0.668444,-0.39842 0.875,-0.53125 0.103278,-0.06641 0.192816,-0.115717 0.25,-0.15625 0.02859,-0.02027 0.04307,-0.0462 0.0625,-0.0625 0.0097,-0.0082 0.02015,-0.01907 0.03125,-0.03125 0.0056,-0.0061 0.02316,0.01299 0.03125,0 0.004,-0.0065 -2.27e-4,-0.03066 0,-0.03125 2.27e-4,-5.89e-4 0.03124,-0.06204 0.03125,-0.0625 0.0019,-0.100253 -0.04772,-0.162917 -0.09375,-0.25 -0.04603,-0.08708 -0.108762,-0.195997 -0.1875,-0.3125 -0.157477,-0.233006 -0.376177,-0.50341 -0.625,-0.8125 -0.497647,-0.61818 -1.121415,-1.307514 -1.625,-1.78125 -2.309707,-2.172806 -5.375663,-3.660811 -8.28125,-3.96875 -0.406537,-0.04308 -0.881133,-0.122141 -1.0625,-0.15625 L 64.625,48.84375 a 0.14527817,0.14527817 0 0 0 -0.03125,0 0.14527817,0.14527817 0 0 0 -0.03125,0 z"
         transform="matrix(0.93434497,0,0,0.98914915,-11.272209,-15.311874)"
         id="path3954"
         style="opacity:0.59999999999999998;fill:#e2e6f2;fill-opacity:1;fill-rule:nonzero;stroke:none;display:inline" />
      <path
         d="M 59.5,47.999999 C 59.5,54.347999 54.348,59.5 48,59.5 41.652,59.5 36.5,54.347999 36.5,47.999999 36.5,41.651999 41.652,36.5 48,36.5 c 6.348,0 11.5,5.151999 11.5,11.499999 z"
         id="path3956"
         style="opacity:0.5;fill:none;stroke:#2b1100;stroke-width:1;stroke-linecap:butt;stroke-linejoin:round;stroke-miterlimit:4;stroke-opacity:1;stroke-dasharray:none;stroke-dashoffset:0;display:inline" />
      <path
         d="m 48,24 0,48 1,0 0,-48 -1,0 z"
         id="path3958"
         style="opacity:0.5;fill:#2b1100;fill-opacity:1;fill-rule:evenodd;stroke:none;display:inline" />
      <path
         d="m 76,47 -56,0 0,1 56,0 0,-1 z"
         id="path3960"
         style="opacity:0.5;fill:#2b1100;fill-opacity:1;fill-rule:evenodd;stroke:none;display:inline" />
      <path
         d="M 60.93717,40.3125 47.62467,48 l 0.375,0.65625 13.359375,-7.710938 C 61.209248,40.741446 61.061257,40.531889 60.93717,40.3125 z"
         id="path3962"
         style="opacity:0.5;fill:#2b1100;fill-opacity:1;fill-rule:evenodd;stroke:none;display:inline" />
      <g
         transform="matrix(1.68563,0,0,1.68563,-33.043659,-39.962043)"
         id="g3964"
         style="font-size:12px;font-style:normal;font-variant:normal;font-weight:bold;font-stretch:normal;text-align:start;line-height:125%;writing-mode:lr-tb;text-anchor:start;fill:#000000;fill-opacity:1;stroke:none;font-family:American Participants;-inkscape-font-specification:Abandoned Bitplane Bold">
        <path
           d="m 51.307151,54.001482 c -7e-6,0.936001 -0.308007,1.668001 -0.924,2.196 -0.584005,0.488 -1.352005,0.731999 -2.304,0.732 -0.936003,-10e-7 -1.696002,-0.244 -2.28,-0.732 -0.632001,-0.519999 -0.948001,-1.235999 -0.948,-2.148 -1e-6,-0.151998 0.008,-0.303997 0.024,-0.456 l 2.208,0 c -0.024,0.128003 -0.036,0.252002 -0.036,0.372 -3e-6,0.328002 0.092,0.592002 0.276,0.792 0.183997,0.200001 0.439997,0.300001 0.768,0.3 0.311996,10e-7 0.563996,-0.107999 0.756,-0.324 0.191995,-0.223998 0.287995,-0.491998 0.288,-0.804 -5e-6,-0.335997 -0.108005,-0.603997 -0.324,-0.804 -0.208004,-0.199997 -0.480004,-0.295997 -0.816,-0.288 l 0,-1.62 c 0.311996,0.008 0.571996,-0.07999 0.78,-0.264 0.215995,-0.183994 0.323995,-0.427994 0.324,-0.732 -5e-6,-0.295994 -0.096,-0.535993 -0.288,-0.72 -0.192004,-0.183993 -0.436004,-0.275993 -0.732,-0.276 -0.296003,7e-6 -0.536003,0.08801 -0.72,0.264 -0.176003,0.168007 -0.272003,0.396006 -0.288,0.684 l -2.028,0 c -1e-6,-0.839993 0.295999,-1.511992 0.888,-2.016 0.559998,-0.479991 1.267997,-0.719991 2.124,-0.72 0.839995,9e-6 1.547995,0.236009 2.124,0.708 0.623994,0.496008 0.935993,1.156007 0.936,1.98 -7e-6,0.832005 -0.304006,1.444005 -0.912,1.836 0.735993,0.408004 1.103993,1.088003 1.104,2.04"
           id="path3966"
           style="font-weight:normal;-inkscape-font-specification:Abandoned Bitplane" />
      </g>
    </g>
    <path
       d="m 20,48 0,21.90625 C 20,71.06965 20.892,72 22,72 l 52,0 c 1.108,0 2,-0.93035 2,-2.09375 L 76,48 20,48 z m 2,30 c -1.108,0 -2,0.93035 -2,2.09375 L 20,90 76,90 76,80.09375 C 76,78.93035 75.108,78 74,78 l -52,0 z"
       id="rect3912"
       style="opacity:0.6;fill:url(#linearGradient3968);fill-opacity:1;stroke:none" />
    <g
       transform="translate(0,-54)"
       clip-path="url(#clipPath4000)"
       id="g3976">
      <path
         d="m 82.204286,73.387573 a 9.1021433,9.1021433 0 1 1 -18.204287,0 9.1021433,9.1021433 0 1 1 18.204287,0 z"
         transform="matrix(2.0874204,0,0,2.0874204,-104.59524,-105.19072)"
         id="path3978"
         style="fill:#223f91;fill-opacity:1;fill-rule:evenodd;stroke:none;display:inline" />
      <path
         d="m 82.204286,73.387573 a 9.1021433,9.1021433 0 1 1 -18.204287,0 9.1021433,9.1021433 0 1 1 18.204287,0 z"
         transform="matrix(1.867692,0,0,1.867692,-88.532286,-89.065384)"
         id="path3980"
         style="fill:#4665bc;fill-opacity:1;fill-rule:evenodd;stroke:none;display:inline" />
      <path
         d="m 82.204286,73.387573 a 9.1021433,9.1021433 0 1 1 -18.204287,0 9.1021433,9.1021433 0 1 1 18.204287,0 z"
         transform="matrix(1.6479635,0,0,1.6479635,-72.469995,-72.940043)"
         id="path3982"
         style="opacity:0.59999999999999998;fill:#aab5d5;fill-opacity:1;fill-rule:evenodd;stroke:none;display:inline" />
      <path
         d="M 64.5625,48.84375 A 0.14527817,0.14527817 0 0 0 64.53125,48.875 0.14527817,0.14527817 0 0 0 64.5,48.90625 0.14527817,0.14527817 0 0 0 64.46875,48.9375 0.14527817,0.14527817 0 0 0 64.4375,48.96875 0.14527817,0.14527817 0 0 0 64.4375,49 l 0,7.15625 0,7.125 a 0.14527817,0.14527817 0 0 0 0.03125,0.0625 0.14527817,0.14527817 0 0 0 0,0.03125 0.14527817,0.14527817 0 0 0 0.03125,0.03125 0.14527817,0.14527817 0 0 0 0.03125,0 0.14527817,0.14527817 0 0 0 0.0625,0.03125 0.14527817,0.14527817 0 0 0 0.03125,0 0.14527817,0.14527817 0 0 0 0.03125,-0.03125 L 65.5,62.9375 c 2.032547,-1.136687 4.850936,-2.76706 7.15625,-4.125 1.152657,-0.67897 2.167703,-1.300142 2.90625,-1.75 0.369274,-0.224929 0.668444,-0.39842 0.875,-0.53125 0.103278,-0.06641 0.192816,-0.115717 0.25,-0.15625 0.02859,-0.02027 0.04307,-0.0462 0.0625,-0.0625 0.0097,-0.0082 0.02015,-0.01907 0.03125,-0.03125 0.0056,-0.0061 0.02316,0.01299 0.03125,0 0.004,-0.0065 -2.27e-4,-0.03066 0,-0.03125 2.27e-4,-5.89e-4 0.03124,-0.06204 0.03125,-0.0625 0.0019,-0.100253 -0.04772,-0.162917 -0.09375,-0.25 -0.04603,-0.08708 -0.108762,-0.195997 -0.1875,-0.3125 -0.157477,-0.233006 -0.376177,-0.50341 -0.625,-0.8125 -0.497647,-0.61818 -1.121415,-1.307514 -1.625,-1.78125 -2.309707,-2.172806 -5.375663,-3.660811 -8.28125,-3.96875 -0.406537,-0.04308 -0.881133,-0.122141 -1.0625,-0.15625 L 64.625,48.84375 a 0.14527817,0.14527817 0 0 0 -0.03125,0 0.14527817,0.14527817 0 0 0 -0.03125,0 z"
         transform="matrix(0.93434497,0,0,0.98914915,-11.272209,-15.311874)"
         id="path3984"
         style="opacity:0.6;fill:#f2ece2;fill-opacity:1;fill-rule:nonzero;stroke:none;display:inline" />
      <path
         d="M 59.5,47.999999 C 59.5,54.347999 54.348,59.5 48,59.5 41.652,59.5 36.5,54.347999 36.5,47.999999 36.5,41.651999 41.652,36.5 48,36.5 c 6.348,0 11.5,5.151999 11.5,11.499999 z"
         id="path3986"
         style="opacity:0.5;fill:none;stroke:#2b1100;stroke-width:1;stroke-linecap:butt;stroke-linejoin:round;stroke-miterlimit:4;stroke-opacity:1;stroke-dasharray:none;stroke-dashoffset:0;display:inline" />
      <path
         d="m 48,24 0,48 1,0 0,-48 -1,0 z"
         id="path3988"
         style="opacity:0.5;fill:#2b1100;fill-opacity:1;fill-rule:evenodd;stroke:none;display:inline" />
      <path
         d="m 76,47 -56,0 0,1 56,0 0,-1 z"
         id="path3990"
         style="opacity:0.5;fill:#2b1100;fill-opacity:1;fill-rule:evenodd;stroke:none;display:inline" />
      <path
         d="M 60.93717,40.3125 47.62467,48 l 0.375,0.65625 13.359375,-7.710938 C 61.209248,40.741446 61.061257,40.531889 60.93717,40.3125 z"
         id="path3992"
         style="opacity:0.5;fill:#2b1100;fill-opacity:1;fill-rule:evenodd;stroke:none;display:inline" />
      <g
         transform="matrix(1.68563,0,0,1.68563,-33.043659,-39.962043)"
         id="g3994"
         style="font-size:12px;font-style:normal;font-variant:normal;font-weight:bold;font-stretch:normal;text-align:start;line-height:125%;writing-mode:lr-tb;text-anchor:start;fill:#000000;fill-opacity:1;stroke:none;font-family:American Participants;-inkscape-font-specification:Abandoned Bitplane Bold">
        <path
           d="m 51.307151,54.001482 c -7e-6,0.936001 -0.308007,1.668001 -0.924,2.196 -0.584005,0.488 -1.352005,0.731999 -2.304,0.732 -0.936003,-10e-7 -1.696002,-0.244 -2.28,-0.732 -0.632001,-0.519999 -0.948001,-1.235999 -0.948,-2.148 -1e-6,-0.151998 0.008,-0.303997 0.024,-0.456 l 2.208,0 c -0.024,0.128003 -0.036,0.252002 -0.036,0.372 -3e-6,0.328002 0.092,0.592002 0.276,0.792 0.183997,0.200001 0.439997,0.300001 0.768,0.3 0.311996,10e-7 0.563996,-0.107999 0.756,-0.324 0.191995,-0.223998 0.287995,-0.491998 0.288,-0.804 -5e-6,-0.335997 -0.108005,-0.603997 -0.324,-0.804 -0.208004,-0.199997 -0.480004,-0.295997 -0.816,-0.288 l 0,-1.62 c 0.311996,0.008 0.571996,-0.07999 0.78,-0.264 0.215995,-0.183994 0.323995,-0.427994 0.324,-0.732 -5e-6,-0.295994 -0.096,-0.535993 -0.288,-0.72 -0.192004,-0.183993 -0.436004,-0.275993 -0.732,-0.276 -0.296003,7e-6 -0.536003,0.08801 -0.72,0.264 -0.176003,0.168007 -0.272003,0.396006 -0.288,0.684 l -2.028,0 c -1e-6,-0.839993 0.295999,-1.511992 0.888,-2.016 0.559998,-0.479991 1.267997,-0.719991 2.124,-0.72 0.839995,9e-6 1.547995,0.236009 2.124,0.708 0.623994,0.496008 0.935993,1.156007 0.936,1.98 -7e-6,0.832005 -0.304006,1.444005 -0.912,1.836 0.735993,0.408004 1.103993,1.088003 1.104,2.04"
           id="path3996"
           style="font-weight:normal;-inkscape-font-specification:Abandoned Bitplane" />
      </g>
    </g>
  </g>
  <g
     id="layer5"
     style="display:inline">
    <rect
       width="66"
       height="66"
       rx="12"
       ry="12"
       x="15"
       y="15"
       clip-path="url(#clipPath3613)"
       id="rect3171"
       style="opacity:0.1;fill:url(#linearGradient3613);fill-opacity:1;fill-rule:nonzero;stroke:#ffffff;stroke-width:0.5;stroke-linecap:round;stroke-linejoin:miter;stroke-miterlimit:4;stroke-opacity:1;stroke-dasharray:none;stroke-dashoffset:0;filter:url(#filter3794)" />
    <path
       d="M 12,6 C 8.676,6 6,8.676 6,12 l 0,2 0,68 0,2 c 0,0.334721 0.04135,0.6507 0.09375,0.96875 0.0487,0.295596 0.09704,0.596915 0.1875,0.875 0.00988,0.03038 0.020892,0.0636 0.03125,0.09375 0.098865,0.287771 0.2348802,0.547452 0.375,0.8125 0.1445918,0.273507 0.3156161,0.535615 0.5,0.78125 0.1843839,0.245635 0.3737765,0.473472 0.59375,0.6875 0.439947,0.428056 0.94291,0.814526 1.5,1.09375 0.278545,0.139612 0.5734731,0.246947 0.875,0.34375 -0.2562018,-0.100222 -0.4867109,-0.236272 -0.71875,-0.375 -0.00741,-0.0044 -0.023866,0.0045 -0.03125,0 -0.031933,-0.0193 -0.062293,-0.04251 -0.09375,-0.0625 -0.120395,-0.0767 -0.2310226,-0.163513 -0.34375,-0.25 -0.1061728,-0.0808 -0.2132809,-0.161112 -0.3125,-0.25 C 8.4783201,88.557317 8.3087904,88.373362 8.15625,88.1875 8.0486711,88.057245 7.9378561,87.922215 7.84375,87.78125 7.818661,87.74287 7.805304,87.69538 7.78125,87.65625 7.716487,87.553218 7.6510225,87.451733 7.59375,87.34375 7.4927417,87.149044 7.3880752,86.928049 7.3125,86.71875 7.30454,86.69694 7.288911,86.6782 7.28125,86.65625 7.2494249,86.5643 7.2454455,86.469419 7.21875,86.375 7.1884177,86.268382 7.1483606,86.171969 7.125,86.0625 7.0521214,85.720988 7,85.364295 7,85 L 7,83 7,15 7,13 C 7,10.218152 9.2181517,8 12,8 l 2,0 68,0 2,0 c 2.781848,0 5,2.218152 5,5 l 0,2 0,68 0,2 c 0,0.364295 -0.05212,0.720988 -0.125,1.0625 -0.04415,0.206893 -0.08838,0.397658 -0.15625,0.59375 -0.0077,0.02195 -0.0233,0.04069 -0.03125,0.0625 -0.06274,0.173739 -0.138383,0.367449 -0.21875,0.53125 -0.04158,0.0828 -0.07904,0.169954 -0.125,0.25 -0.0546,0.09721 -0.126774,0.18835 -0.1875,0.28125 -0.09411,0.140965 -0.204921,0.275995 -0.3125,0.40625 -0.143174,0.17445 -0.303141,0.346998 -0.46875,0.5 -0.01117,0.0102 -0.01998,0.02115 -0.03125,0.03125 -0.138386,0.125556 -0.285091,0.234436 -0.4375,0.34375 -0.102571,0.07315 -0.204318,0.153364 -0.3125,0.21875 -0.0074,0.0045 -0.02384,-0.0044 -0.03125,0 -0.232039,0.138728 -0.462548,0.274778 -0.71875,0.375 0.301527,-0.0968 0.596455,-0.204138 0.875,-0.34375 0.55709,-0.279224 1.060053,-0.665694 1.5,-1.09375 0.219973,-0.214028 0.409366,-0.441865 0.59375,-0.6875 0.184384,-0.245635 0.355408,-0.507743 0.5,-0.78125 0.14012,-0.265048 0.276135,-0.524729 0.375,-0.8125 0.01041,-0.03078 0.02133,-0.06274 0.03125,-0.09375 0.09046,-0.278085 0.1388,-0.579404 0.1875,-0.875 C 89.95865,84.6507 90,84.334721 90,84 l 0,-2 0,-68 0,-2 C 90,8.676 87.324,6 84,6 L 12,6 z"
       id="rect3728"
       style="opacity:0.25;fill:url(#linearGradient3188);fill-opacity:1;fill-rule:nonzero;stroke:none" />
    <path
       d="M 12,90 C 8.676,90 6,87.324 6,84 L 6,82 6,14 6,12 c 0,-0.334721 0.04135,-0.6507 0.09375,-0.96875 0.0487,-0.295596 0.09704,-0.596915 0.1875,-0.875 C 6.29113,10.12587 6.302142,10.09265 6.3125,10.0625 6.411365,9.774729 6.5473802,9.515048 6.6875,9.25 6.8320918,8.976493 7.0031161,8.714385 7.1875,8.46875 7.3718839,8.223115 7.5612765,7.995278 7.78125,7.78125 8.221197,7.353194 8.72416,6.966724 9.28125,6.6875 9.559795,6.547888 9.8547231,6.440553 10.15625,6.34375 9.9000482,6.443972 9.6695391,6.580022 9.4375,6.71875 c -0.00741,0.0044 -0.023866,-0.0045 -0.03125,0 -0.031933,0.0193 -0.062293,0.04251 -0.09375,0.0625 -0.120395,0.0767 -0.2310226,0.163513 -0.34375,0.25 -0.1061728,0.0808 -0.2132809,0.161112 -0.3125,0.25 C 8.4783201,7.442683 8.3087904,7.626638 8.15625,7.8125 8.0486711,7.942755 7.9378561,8.077785 7.84375,8.21875 7.818661,8.25713 7.805304,8.30462 7.78125,8.34375 7.716487,8.446782 7.6510225,8.548267 7.59375,8.65625 7.4927417,8.850956 7.3880752,9.071951 7.3125,9.28125 7.30454,9.30306 7.288911,9.3218 7.28125,9.34375 7.2494249,9.4357 7.2454455,9.530581 7.21875,9.625 7.1884177,9.731618 7.1483606,9.828031 7.125,9.9375 7.0521214,10.279012 7,10.635705 7,11 l 0,2 0,68 0,2 c 0,2.781848 2.2181517,5 5,5 l 2,0 68,0 2,0 c 2.781848,0 5,-2.218152 5,-5 l 0,-2 0,-68 0,-2 C 89,10.635705 88.94788,10.279012 88.875,9.9375 88.83085,9.730607 88.78662,9.539842 88.71875,9.34375 88.71105,9.3218 88.69545,9.30306 88.6875,9.28125 88.62476,9.107511 88.549117,8.913801 88.46875,8.75 88.42717,8.6672 88.38971,8.580046 88.34375,8.5 88.28915,8.40279 88.216976,8.31165 88.15625,8.21875 88.06214,8.077785 87.951329,7.942755 87.84375,7.8125 87.700576,7.63805 87.540609,7.465502 87.375,7.3125 87.36383,7.3023 87.35502,7.29135 87.34375,7.28125 87.205364,7.155694 87.058659,7.046814 86.90625,6.9375 86.803679,6.86435 86.701932,6.784136 86.59375,6.71875 c -0.0074,-0.0045 -0.02384,0.0044 -0.03125,0 -0.232039,-0.138728 -0.462548,-0.274778 -0.71875,-0.375 0.301527,0.0968 0.596455,0.204138 0.875,0.34375 0.55709,0.279224 1.060053,0.665694 1.5,1.09375 0.219973,0.214028 0.409366,0.441865 0.59375,0.6875 0.184384,0.245635 0.355408,0.507743 0.5,0.78125 0.14012,0.265048 0.276135,0.524729 0.375,0.8125 0.01041,0.03078 0.02133,0.06274 0.03125,0.09375 0.09046,0.278085 0.1388,0.579404 0.1875,0.875 C 89.95865,11.3493 90,11.665279 90,12 l 0,2 0,68 0,2 c 0,3.324 -2.676,6 -6,6 l -72,0 z"
       id="path3615"
       style="opacity:0.15;fill:url(#radialGradient3619);fill-opacity:1;fill-rule:nonzero;stroke:none" />
  </g>
  <g
     id="g6487"
     transform="matrix(0.6582519,0,0,0.6582519,85.206425,28.653636)">
    <g
       style="display:inline"
       id="layer3-2"
       transform="translate(-80.672269,5.7605042)">
      <path
         style="opacity:0.07999998;fill:url(#linearGradient6522);fill-opacity:1;fill-rule:nonzero;stroke:none;display:inline"
         id="path3786"
         d="M 12,3.96875 C 6.4889098,3.96875 1.96875,8.4889098 1.96875,14 l 0,71 c 0,5.51109 4.5201597,10.03125 10.03125,10.03125 l 72,0 c 5.51109,0 10.03125,-4.52016 10.03125,-10.03125 l 0,-71 C 94.03125,8.4889097 89.51109,3.96875 84,3.96875 l -72,0 z M 12,6 84,6 c 3.324,0 6,2.676 6,6 l 0,72 c 0,3.324 -2.676,6 -6,6 L 12,90 C 8.676,90 6,87.324 6,84 L 6,12 C 6,8.676 8.676,6 12,6 z" />
      <path
         style="opacity:0.1;fill:url(#linearGradient6524);fill-opacity:1;fill-rule:nonzero;stroke:none;display:inline"
         id="path3778"
         d="M 12,4.96875 C 7.0283671,4.96875 2.96875,9.0283671 2.96875,14 l 0,71 c 0,4.971633 4.059617,9.03125 9.03125,9.03125 l 72,0 c 4.971633,0 9.03125,-4.059617 9.03125,-9.03125 l 0,-71 C 93.03125,9.028367 88.971633,4.96875 84,4.96875 l -72,0 z M 12,6 84,6 c 3.324,0 6,2.676 6,6 l 0,72 c 0,3.324 -2.676,6 -6,6 L 12,90 C 8.676,90 6,87.324 6,84 L 6,12 C 6,8.676 8.676,6 12,6 z" />
      <path
         style="opacity:0.2;fill:url(#linearGradient6526);fill-opacity:1;fill-rule:nonzero;stroke:none;display:inline"
         id="path3770"
         d="M 11.1875,6.03125 C 7.1599817,6.4419011 4,9.8664375 4,14 l 0,71 c 0,4.409133 3.5908667,8 8,8 l 72,0 c 4.409133,0 8,-3.590867 8,-8 L 92,14 C 92,9.8029382 88.741028,6.3539584 84.625,6.03125 87.657886,6.337417 90,8.88375 90,12 l 0,72 c 0,3.324 -2.676,6 -6,6 L 12,90 C 8.676,90 6,87.324 6,84 L 6,12 c 0,-3.11625 2.3421143,-5.662583 5.375,-5.96875 -0.06227,0.00488 -0.12563,-0.00631 -0.1875,0 z" />
      <path
         style="opacity:0.3;fill:url(#linearGradient6528);fill-opacity:1;fill-rule:nonzero;stroke:none;display:inline"
         id="rect3723-4"
         d="M 6.4375,9.75 C 5.5380109,10.927446 5,12.397277 5,14 l 0,71 c 0,3.878 3.122,7 7,7 l 72,0 c 3.878,0 7,-3.122 7,-7 L 91,14 C 91,12.397277 90.461989,10.927446 89.5625,9.75 89.841816,10.444095 90,11.203625 90,12 l 0,72 c 0,3.324 -2.676,6 -6,6 L 12,90 C 8.676,90 6,87.324 6,84 L 6,12 C 6,11.203625 6.1581836,10.444095 6.4375,9.75 z" />
      <path
         style="opacity:0.45;fill:url(#linearGradient6530);fill-opacity:1;fill-rule:nonzero;stroke:none;display:inline"
         id="rect3716-0"
         d="m 6,84 0,1 c 0,3.324 2.676,6 6,6 l 72,0 c 3.324,0 6,-2.676 6,-6 l 0,-1 c 0,3.324 -2.676,6 -6,6 L 12,90 C 8.676,90 6,87.324 6,84 z" />
    </g>
    <rect
       width="84"
       height="84"
       rx="6"
       ry="6"
       x="-74.672272"
       y="11.760504"
       id="rect4576"
       style="fill:url(#linearGradient6532);fill-opacity:1;stroke:none;display:inline" />
    <path
       d="m 5.3277301,53.760504 a 38,38 0 0 1 -75.9999991,0 38,38 0 1 1 75.9999991,0 z"
       id="path4630"
       style="opacity:0.4;fill:url(#radialGradient6534);fill-opacity:1;stroke:none;display:inline" />
    <path
       d="m 48,102 c -19.882251,0 -36,16.11775 -36,36 0,19.88225 16.117749,36 36,36 19.882251,0 36,-16.11775 36,-36 0,-19.88225 -16.117749,-36 -36,-36 z m 0,24 c 6.627417,0 12,5.37258 12,12 0,6.62742 -5.372583,12 -12,12 -6.627417,0 -12,-5.37258 -12,-12 0,-6.62742 5.372583,-12 12,-12 z"
       transform="translate(-80.672269,-84.239496)"
       clip-path="url(#clipPath3721)"
       id="path3724"
       style="opacity:0.8;fill:#000000;fill-opacity:1;stroke:none;display:inline;filter:url(#filter3751)" />
    <path
       d="m -32.672269,17.760504 c -19.882251,0 -36,16.117749 -36,36 0,19.882251 16.117749,36 36,36 19.882251,0 36.0000001,-16.117749 36.0000001,-36 0,-19.882251 -16.1177491,-36 -36.0000001,-36 z m 0,24 c 6.627417,0 12,5.372583 12,12 0,6.627417 -5.372583,12 -12,12 -6.627417,0 -12,-5.372583 -12,-12 0,-6.627417 5.372583,-12 12,-12 z"
       id="path3978-9"
       style="fill:#bbb1bf;fill-opacity:1;stroke:none;display:inline" />
    <path
       d="m -32.672269,41.760504 c -6.627417,0 -12,5.372583 -12,12 0,6.627417 5.372583,12 12,12 6.627417,0 12,-5.372583 12,-12 0,-6.627417 -5.372583,-12 -12,-12 z m 0,7 c 2.761424,0 5,2.238576 5,5 0,2.761424 -2.238576,5 -5,5 -2.761424,0 -5,-2.238576 -5,-5 0,-2.761424 2.238576,-5 5,-5 z"
       id="path3992-0"
       style="opacity:0.3;fill:#ffffff;fill-opacity:1;stroke:none;display:inline" />
    <path
       d="m -32.672268,59.260503 a 5.4999999,5.5000001 0 1 1 0,-11 5.4999999,5.5000001 0 1 1 0,11 z"
       id="path4002-8"
       style="opacity:0.6;fill:none;stroke:url(#linearGradient6536);stroke-width:1.51917541;stroke-linecap:round;stroke-linejoin:miter;stroke-miterlimit:4;stroke-opacity:1;stroke-dasharray:none;stroke-dashoffset:0;display:inline" />
    <path
       d="m -32.672269,63.260505 a 9.5,9.499894 0 1 1 0,-18.999788 9.5,9.499894 0 1 1 0,18.999788 z"
       id="path4010"
       style="opacity:0.5;fill:url(#radialGradient6538);fill-opacity:1;fill-rule:evenodd;stroke:url(#linearGradient6540);stroke-width:1.51917529;stroke-linecap:round;stroke-linejoin:miter;stroke-miterlimit:4;stroke-opacity:1;stroke-dasharray:none;stroke-dashoffset:0;display:inline" />
    <path
       d="M 57.3125,33.21875 48,68 79.1875,50 C 74.413603,41.731368 66.53496,35.689901 57.3125,33.21875 z M 48,68 16.8125,86 c 4.773897,8.268632 12.65254,14.3101 21.875,16.78125 L 48,68 z"
       transform="translate(-80.672269,-14.239496)"
       clip-path="url(#clipPath4031)"
       id="path4018"
       style="opacity:0.8;fill:#ffffff;fill-opacity:1;stroke:none;display:inline;filter:url(#filter4035)" />
    <g
       transform="translate(-80.672269,-84.239496)"
       clip-path="url(#clipPath4187)"
       id="g4175"
       style="opacity:0.6;display:inline;filter:url(#filter4195)">
      <path
         d="m 60.947452,57.784124 a 20.708128,18.814091 0 0 1 -2.615496,2.905857 L 43.689098,47.38641 z"
         transform="matrix(1.5055399,0.86922388,-0.95672979,1.6571045,27.560302,21.500167)"
         id="path4039"
         style="fill:#7137c8;fill-opacity:1;stroke:none" />
      <path
         d="m 60.779363,58.010828 a 20.708128,18.814091 0 0 1 -3.384016,3.478847 L 43.689098,47.38641 z"
         transform="matrix(1.6792116,0.4499434,-0.49523981,1.8482599,-1.8956092,30.759984)"
         id="path4041"
         style="fill:#00ccff;fill-opacity:1;stroke:none" />
      <path
         d="m 62.72377,54.795738 a 20.708128,18.814091 0 0 1 -2.259683,3.622054 L 43.689098,47.38641 z"
         transform="matrix(1.7384478,0,-6.0266211e-8,1.9134595,-27.951218,47.328031)"
         id="path4043"
         style="fill:#ffcc00;fill-opacity:1;stroke:none" />
      <path
         d="m 61.622863,56.793455 a 20.708128,18.814091 0 0 1 -1.699251,2.272761 L 43.689098,47.38641 z"
         transform="matrix(1.6792116,-0.4499434,0.4952397,1.84826,-48.830877,70.075223)"
         id="path4045"
         style="fill:#ff0000;fill-opacity:1;stroke:none" />
      <path
         d="m 63.123303,53.883448 a 20.708128,18.814091 0 0 1 -2.370014,4.161918 L 43.689098,47.38641 z"
         transform="matrix(1.6792116,0.4499434,-0.49523981,1.8482599,-1.8956092,30.759984)"
         id="path4144"
         style="fill:#00ff00;fill-opacity:1;stroke:none" />
      <path
         d="m 60.947452,57.784124 a 20.708128,18.814091 0 0 1 -2.615496,2.905857 L 43.689098,47.38641 z"
         transform="matrix(-1.5055399,-0.86922388,0.95672979,-1.6571045,68.439684,254.49984)"
         id="path4155"
         style="fill:#7137c8;fill-opacity:1;stroke:none" />
      <path
         d="m 60.779363,58.010828 a 20.708128,18.814091 0 0 1 -3.384016,3.478847 L 43.689098,47.38641 z"
         transform="matrix(-1.6792116,-0.4499434,0.49523981,-1.8482599,97.895595,245.24003)"
         id="path4157"
         style="fill:#00ccff;fill-opacity:1;stroke:none" />
      <path
         d="m 62.72377,54.795738 a 20.708128,18.814091 0 0 1 -2.259683,3.622054 L 43.689098,47.38641 z"
         transform="matrix(-1.7384478,0,6.0266211e-8,-1.9134595,123.9512,228.67198)"
         id="path4159"
         style="fill:#ffcc00;fill-opacity:1;stroke:none" />
      <path
         d="m 61.622863,56.793455 a 20.708128,18.814091 0 0 1 -1.699251,2.272761 L 43.689098,47.38641 z"
         transform="matrix(-1.6792116,0.4499434,-0.4952397,-1.84826,144.83086,205.92479)"
         id="path4161"
         style="fill:#ff0000;fill-opacity:1;stroke:none" />
      <path
         d="m 63.123303,53.883448 a 20.708128,18.814091 0 0 1 -2.370014,4.161918 L 43.689098,47.38641 z"
         transform="matrix(-1.6792116,-0.4499434,0.49523981,-1.8482599,97.895595,245.24003)"
         id="path4163"
         style="fill:#00ff00;fill-opacity:1;stroke:none" />
    </g>
    <path
       d="m -32.672269,39.260504 c -8.008129,0 -14.5,6.491871 -14.5,14.5 0,8.008129 6.491871,14.5 14.5,14.5 8.008129,0 14.5,-6.491871 14.5,-14.5 0,-8.008129 -6.491871,-14.5 -14.5,-14.5 z m 0,2.5 c 6.627417,0 12,5.372583 12,12 0,6.627417 -5.372583,12 -12,12 -6.627417,0 -12,-5.372583 -12,-12 0,-6.627417 5.372583,-12 12,-12 z"
       id="path3986-2"
       style="opacity:0.2;fill:#000000;fill-opacity:1;stroke:none;display:inline" />
    <path
       d="m -32.672269,17.760504 c -19.88225,0 -36,16.117749 -36,36 0,0.337069 0.022,0.665155 0.0312,1 0.53379,-19.416215 16.42362,-35 35.9688,-35 19.545182,0 35.4350081,15.583785 35.9687501,35 0.0092,-0.334845 0.03125,-0.662931 0.03125,-1 0,-19.882251 -16.1177491,-36 -36.0000001,-36 z"
       id="path4199"
       style="opacity:0.4;fill:#ffffff;fill-opacity:1;stroke:none;display:inline" />
    <path
       d="m -68.672269,11.760504 c -3.324,0 -6,2.676 -6,6 l 0,2 0,68 0,2 c 0,0.334721 0.04135,0.6507 0.09375,0.96875 0.0487,0.295596 0.09704,0.596915 0.1875,0.875 0.0099,0.03038 0.02089,0.0636 0.03125,0.09375 0.09887,0.287771 0.23488,0.547452 0.375,0.8125 0.144592,0.273507 0.315616,0.535615 0.5,0.78125 0.184384,0.245635 0.373777,0.473472 0.59375,0.6875 0.439947,0.428056 0.94291,0.814526 1.5,1.09375 0.278545,0.139612 0.573473,0.246947 0.875,0.34375 -0.256202,-0.100222 -0.486711,-0.236272 -0.71875,-0.375 -0.0074,-0.0044 -0.02387,0.0045 -0.03125,0 -0.03193,-0.0193 -0.06229,-0.04251 -0.09375,-0.0625 -0.120395,-0.0767 -0.231023,-0.163513 -0.34375,-0.25 -0.106173,-0.0808 -0.213281,-0.161112 -0.3125,-0.25 -0.17793,-0.161433 -0.34746,-0.345388 -0.5,-0.53125 -0.107579,-0.130255 -0.218394,-0.265285 -0.3125,-0.40625 -0.02509,-0.03838 -0.03845,-0.08587 -0.0625,-0.125 -0.06476,-0.103032 -0.130227,-0.204517 -0.1875,-0.3125 -0.101008,-0.194706 -0.205675,-0.415701 -0.28125,-0.625 -0.008,-0.02181 -0.02359,-0.04055 -0.03125,-0.0625 -0.03182,-0.09195 -0.0358,-0.186831 -0.0625,-0.28125 -0.03033,-0.106618 -0.07039,-0.203031 -0.09375,-0.3125 -0.07288,-0.341512 -0.125,-0.698205 -0.125,-1.0625 l 0,-2 0,-68 0,-2 c 0,-2.781848 2.218152,-5 5,-5 l 2,0 68.0000001,0 2,0 c 2.781848,0 5,2.218152 5,5 l 0,2 0,68 0,2 c 0,0.364295 -0.05212,0.720988 -0.125,1.0625 -0.04415,0.206893 -0.08838,0.397658 -0.15625,0.59375 -0.0077,0.02195 -0.0233,0.04069 -0.03125,0.0625 -0.06274,0.173739 -0.138383,0.367449 -0.21875,0.53125 -0.04158,0.0828 -0.07904,0.169954 -0.125,0.25 -0.0546,0.09721 -0.126774,0.18835 -0.1875,0.28125 -0.09411,0.140965 -0.204921,0.275995 -0.3125,0.40625 -0.143174,0.17445 -0.303141,0.346998 -0.46875,0.5 -0.01117,0.0102 -0.01998,0.02115 -0.03125,0.03125 -0.138386,0.125556 -0.285091,0.234436 -0.4375,0.34375 -0.102571,0.07315 -0.204318,0.153364 -0.3125,0.21875 -0.0074,0.0045 -0.02384,-0.0044 -0.03125,0 -0.232039,0.138728 -0.462548,0.274778 -0.71875,0.375 0.301527,-0.0968 0.596455,-0.204138 0.875,-0.34375 0.55709,-0.279224 1.060053,-0.665694 1.5,-1.09375 0.219973,-0.214028 0.409366,-0.441865 0.59375,-0.6875 0.184384,-0.245635 0.355408,-0.507743 0.5,-0.78125 0.14012,-0.265048 0.276135,-0.524729 0.375,-0.8125 0.01041,-0.03078 0.02133,-0.06274 0.03125,-0.09375 0.09046,-0.278085 0.1388,-0.579404 0.1875,-0.875 0.0524,-0.31805 0.09375,-0.634029 0.09375,-0.96875 l 0,-2 0,-68 0,-2 c 0,-3.324 -2.676,-6 -6,-6 l -72.0000001,0 z"
       id="rect3728-5"
       style="opacity:0.6;fill:url(#linearGradient6542);fill-opacity:1;fill-rule:nonzero;stroke:none;display:inline" />
    <path
       d="m -68.672269,95.760504 c -3.324,0 -6,-2.676 -6,-6 l 0,-2 0,-68 0,-2 c 0,-0.334721 0.04135,-0.6507 0.09375,-0.96875 0.0487,-0.295596 0.09704,-0.596915 0.1875,-0.875 0.0099,-0.03038 0.02089,-0.0636 0.03125,-0.09375 0.09887,-0.287771 0.23488,-0.547452 0.375,-0.8125 0.144592,-0.273507 0.315616,-0.535615 0.5,-0.78125 0.184384,-0.245635 0.373777,-0.473472 0.59375,-0.6875 0.439947,-0.428056 0.94291,-0.814526 1.5,-1.09375 0.278545,-0.139612 0.573473,-0.246947 0.875,-0.34375 -0.256202,0.100222 -0.486711,0.236272 -0.71875,0.375 -0.0074,0.0044 -0.02387,-0.0045 -0.03125,0 -0.03193,0.0193 -0.06229,0.04251 -0.09375,0.0625 -0.120395,0.0767 -0.231023,0.163513 -0.34375,0.25 -0.106173,0.0808 -0.213281,0.161112 -0.3125,0.25 -0.17793,0.161433 -0.34746,0.345388 -0.5,0.53125 -0.107579,0.130255 -0.218394,0.265285 -0.3125,0.40625 -0.02509,0.03838 -0.03845,0.08587 -0.0625,0.125 -0.06476,0.103032 -0.130227,0.204517 -0.1875,0.3125 -0.101008,0.194706 -0.205675,0.415701 -0.28125,0.625 -0.008,0.02181 -0.02359,0.04055 -0.03125,0.0625 -0.03182,0.09195 -0.0358,0.186831 -0.0625,0.28125 -0.03033,0.106618 -0.07039,0.203031 -0.09375,0.3125 -0.07288,0.341512 -0.125,0.698205 -0.125,1.0625 l 0,2 0,68 0,2 c 0,2.781848 2.218152,5 5,5 l 2,0 68.0000001,0 2,0 c 2.781848,0 5,-2.218152 5,-5 l 0,-2 0,-68 0,-2 c 0,-0.364295 -0.05212,-0.720988 -0.125,-1.0625 -0.04415,-0.206893 -0.08838,-0.397658 -0.15625,-0.59375 -0.0077,-0.02195 -0.0233,-0.04069 -0.03125,-0.0625 -0.06274,-0.173739 -0.138383,-0.367449 -0.21875,-0.53125 -0.04158,-0.0828 -0.07904,-0.169954 -0.125,-0.25 -0.0546,-0.09721 -0.126774,-0.18835 -0.1875,-0.28125 -0.09411,-0.140965 -0.204921,-0.275995 -0.3125,-0.40625 -0.143174,-0.17445 -0.303141,-0.346998 -0.46875,-0.5 -0.01117,-0.0102 -0.01998,-0.02115 -0.03125,-0.03125 -0.138386,-0.125556 -0.285091,-0.234436 -0.4375,-0.34375 -0.102571,-0.07315 -0.204318,-0.153364 -0.3125,-0.21875 -0.0074,-0.0045 -0.02384,0.0044 -0.03125,0 -0.232039,-0.138728 -0.462548,-0.274778 -0.71875,-0.375 0.301527,0.0968 0.596455,0.204138 0.875,0.34375 0.55709,0.279224 1.060053,0.665694 1.5,1.09375 0.219973,0.214028 0.409366,0.441865 0.59375,0.6875 0.184384,0.245635 0.355408,0.507743 0.5,0.78125 0.14012,0.265048 0.276135,0.524729 0.375,0.8125 0.01041,0.03078 0.02133,0.06274 0.03125,0.09375 0.09046,0.278085 0.1388,0.579404 0.1875,0.875 0.0524,0.31805 0.09375,0.634029 0.09375,0.96875 l 0,2 0,68 0,2 c 0,3.324 -2.676,6 -6,6 l -72.0000001,0 z"
       id="path3615-3"
       style="opacity:0.3;fill:url(#radialGradient6544);fill-opacity:1;fill-rule:nonzero;stroke:none;display:inline" />
    <path
       d="m -68.672269,11.760504 c -3.324,0 -6,2.676 -6,6 l 0,43.65625 c 18.407332,-8.873819 43.000654,-14.3125 70.0625001,-14.3125 4.72857098,0 9.37768,0.179348 13.9375,0.5 l 0,-29.84375 c 0,-3.324 -2.676,-6 -6,-6 l -72.0000001,0 z"
       id="rect3638"
       style="opacity:0.8;fill:url(#linearGradient6546);fill-opacity:1;fill-rule:nonzero;stroke:none;display:inline" />
    <path
       d="M 12,6 C 8.676,6 6,8.676 6,12 l 0,72 c 0,3.324 2.676,6 6,6 l 72,0 c 3.324,0 6,-2.676 6,-6 L 90,12 C 90,8.676 87.324,6 84,6 L 12,6 z m 36,4 C 68.98682,10 86,27.01318 86,48 86,68.98682 68.98682,86 48,86 27.01318,86 10,68.98682 10,48 10,27.01318 27.01318,10 48,10 z"
       clip-path="url(#clipPath4592)"
       id="path4590"
       style="opacity:0.8;fill:none;stroke:#ffffff;stroke-width:3.03835058;stroke-miterlimit:4;stroke-dasharray:none;display:inline;filter:url(#filter4662)"
       transform="translate(-80.672269,5.7605042)" />
    <path
       d="M -5.0951049,26.183341 A 39,39 0 0 1 -60.249434,81.337669 39,39 0 1 1 -5.0951049,26.183341 z"
       id="path4616"
       style="fill:none;stroke:url(#linearGradient6548);stroke-width:3.03835058;stroke-linecap:round;stroke-linejoin:miter;stroke-miterlimit:4;stroke-opacity:1;stroke-dasharray:none;stroke-dashoffset:0;display:inline" />
    <path
       d="M -60.24944,26.183341 A 39,39 0 0 0 -5.0951109,81.337669 39,39 0 1 0 -60.24944,26.183341 z"
       id="path4626"
       style="opacity:0.4;fill:none;stroke:url(#linearGradient6550);stroke-width:3.03835058;stroke-linecap:round;stroke-linejoin:miter;stroke-miterlimit:4;stroke-opacity:1;stroke-dasharray:none;stroke-dashoffset:0;display:inline" />
  </g>
</svg>
